<svg width="70" height="38" viewBox="0 0 70 38" fill="none" xmlns="http://www.w3.org/2000/svg">
<g clip-path="url(#clip0_9_2)">
<path d="M20.089 18.7728L20.087 18.7742C19.8832 18.9173 19.4271 19.058 18.5638 19.058C17.6944 19.058 17.1698 18.9176 16.8841 18.7389C16.6572 18.597 16.5438 18.4132 16.5438 18.075C16.5438 17.6993 16.6635 17.5458 16.8357 17.4445C17.1036 17.2869 17.614 17.1589 18.473 17.1589C19.3344 17.1589 19.8335 17.2878 20.0857 17.4401C20.2458 17.5367 20.3678 17.6901 20.3678 18.0785C20.3678 18.4883 20.2426 18.6657 20.089 18.7728ZM30.0693 34.1558V22.8515H33.0379V30.9479C33.0379 31.5151 33.0036 32.0187 32.938 32.4612C32.8798 32.8543 32.7605 33.1583 32.5993 33.3947L32.5974 33.3975C32.3109 33.8215 31.6987 34.1558 30.4489 34.1558H30.0693ZM28.0842 33.274C28.0842 33.4719 28.0169 33.6285 27.7664 33.7902C27.4972 33.9636 27.1039 34.0804 26.5321 34.0804C25.9378 34.0804 25.5007 33.9631 25.1805 33.7749C24.8614 33.5857 24.8138 33.4252 24.8138 33.2825C24.8138 33.161 24.8409 33.0794 24.8795 33.0157C24.9319 32.93 25.0069 32.8515 25.12 32.7812L25.12 32.7811C25.3973 32.6086 25.8004 32.4933 26.3813 32.4933C26.9587 32.4933 27.3952 32.6073 27.7254 32.7957L27.727 32.7967C28.0369 32.9725 28.0842 33.1259 28.0842 33.274ZM10.9535 20.4096V19.9958H13.2022V23.225H13.0146C12.4279 23.225 12.1078 23.1587 11.9668 23.0957C11.7313 22.989 11.5886 22.887 11.5069 22.8053C11.4239 22.7223 11.3317 22.5916 11.2436 22.3889C11.0672 21.9768 10.9535 21.3348 10.9535 20.4096ZM5.53865 29.8877V19.9958H8.5416V29.8877H5.53865ZM0.850594 23.225V19.9958H3.10104V20.4096C3.10104 21.8115 2.83546 22.5158 2.54251 22.8087C2.32038 23.0308 1.87931 23.225 1.0382 23.225H0.850594ZM17.0135 29.8877V22.8583H20.0164V29.8877H17.0135ZM23.8762 26.469C23.8762 25.9216 23.948 25.4263 24.0849 24.9784C24.2184 24.5442 24.4209 24.176 24.6894 23.8639C25.235 23.2359 26.0296 22.8732 27.1808 22.8524V29.8803C26.0806 29.8275 25.302 29.4936 24.7604 28.952C24.1954 28.387 23.8762 27.5903 23.8762 26.469ZM45.1436 28.952C44.6019 29.4937 43.8239 29.8275 42.7249 29.8803V22.8524C43.8747 22.8732 44.6688 23.2357 45.2145 23.8638C45.7334 24.4662 46.0278 25.2982 46.0278 26.4364C46.0278 27.5836 45.7063 28.3893 45.1436 28.952ZM36.5644 26.469C36.5644 25.9216 36.6361 25.4263 36.7731 24.9784C36.9065 24.5443 37.109 24.1761 37.3774 23.8641C37.923 23.2359 38.7176 22.8732 39.869 22.8524V29.8803C38.7688 29.8275 37.9902 29.4936 37.4486 28.952C36.8835 28.387 36.5644 27.5903 36.5644 26.469Z" fill="#1A0907" stroke="white" stroke-width="1.5"/>
<mask id="path-2-inside-1_9_2" fill="white">
<path d="M40.3872 27.2366L39.1747 28.3174C38.9501 28.0649 38.7111 27.8753 38.4576 27.7486C38.2051 27.6218 37.9327 27.5485 37.6403 27.5285V26.081C38.7311 26.1299 39.6467 26.5151 40.3872 27.2366ZM37.6403 37.0895V35.642C37.9327 35.613 38.2076 35.5352 38.4651 35.4085C38.7236 35.2817 38.9601 35.0966 39.1747 34.8531L40.3872 35.9204C40.0169 36.2807 39.6028 36.5581 39.1447 36.7527C38.6866 36.9483 38.1852 37.0606 37.6403 37.0895ZM32.9024 31.5778C32.9024 30.7105 33.0072 29.9456 33.2168 29.283C33.4264 28.6203 33.7168 28.0599 34.088 27.6019C34.4583 27.1438 34.8944 26.788 35.3964 26.5346C35.8973 26.2811 36.4452 26.1299 37.04 26.081V27.5435C36.7187 27.5924 36.4168 27.7022 36.1344 27.8728C35.8509 28.0425 35.6024 28.2885 35.3889 28.6108C35.1743 28.9322 35.0062 29.3388 34.8844 29.8308C34.7626 30.3228 34.6968 30.9051 34.6868 31.5778C34.6968 32.2604 34.7626 32.8452 34.8844 33.3322C35.0062 33.8192 35.1743 34.2284 35.3889 34.5597C35.6024 34.891 35.8534 35.1445 36.1418 35.3201C36.4293 35.4958 36.7286 35.6031 37.04 35.642V37.0746C36.4452 37.0356 35.8973 36.8894 35.3964 36.636C34.8944 36.3825 34.4583 36.0267 34.088 35.5686C33.7168 35.1106 33.4264 34.5477 33.2168 33.8801C33.0072 33.2124 32.9024 32.445 32.9024 31.5778ZM46.6889 30.1018V28.7276C47.2248 28.7565 47.7118 28.8858 48.1499 29.1153C48.5891 29.3438 48.9573 29.6457 49.2547 30.0209C49.5511 30.3962 49.7821 30.8323 49.9478 31.3293C50.1134 31.8263 50.1963 32.3577 50.1963 32.9235C50.1963 33.4884 50.1114 34.0168 49.9418 34.5088C49.7711 35.0008 49.5346 35.4299 49.2322 35.7962C48.9299 36.1614 48.5596 36.4558 48.1215 36.6794C47.6824 36.9039 47.2049 37.0356 46.6889 37.0746V35.6719C47.1759 35.5641 47.5731 35.2568 47.8805 34.7498C48.1869 34.2438 48.3401 33.6351 48.3401 32.9235C48.3401 32.5623 48.3036 32.2235 48.2308 31.9071C48.1579 31.5907 48.0482 31.3058 47.9015 31.0523C47.7558 30.7989 47.5806 30.5893 47.376 30.4236C47.1714 30.258 46.9424 30.1507 46.6889 30.1018ZM42.6097 32.8936C42.6097 32.3287 42.6926 31.8023 42.8582 31.3143C43.0239 30.8273 43.2604 30.4012 43.5678 30.0359C43.8742 29.6707 44.2419 29.3758 44.671 29.1512C45.1002 28.9267 45.5727 28.7905 46.0887 28.7426V30.1018C45.6016 30.2086 45.2119 30.5154 44.9195 31.0224C44.6271 31.5294 44.4809 32.1386 44.4809 32.8502C44.4809 33.2104 44.5174 33.5512 44.5902 33.8726C44.6641 34.1949 44.7688 34.4828 44.9046 34.7363C45.0413 34.9888 45.2094 35.1979 45.409 35.3636C45.6086 35.5292 45.8352 35.632 46.0887 35.6719V37.0746C45.5527 37.0356 45.0707 36.9019 44.6426 36.6734C44.2135 36.4438 43.8477 36.144 43.5453 35.7737C43.243 35.4035 43.0114 34.9699 42.8508 34.4729C42.6901 33.9759 42.6097 33.4495 42.6097 32.8936ZM57.579 25.6573H59.3633V37.0162H57.6823L57.579 36.0372V25.6573ZM51.9654 32.7768C51.9654 32.0164 52.0702 31.3782 52.2798 30.8622C52.4894 30.3453 52.7598 29.9261 53.0911 29.6048C53.4225 29.2835 53.7907 29.0519 54.1959 28.9102C54.6001 28.7685 54.9968 28.6976 55.386 28.6976C55.6883 28.6976 55.9763 28.7321 56.2497 28.8009C56.5221 28.8688 56.7656 28.9661 56.9802 29.0928V30.6422C56.8145 30.4665 56.6294 30.3253 56.4248 30.2185C56.2203 30.1118 55.9912 30.0584 55.7377 30.0584C55.4354 30.0584 55.1674 30.1337 54.9339 30.2844C54.6994 30.4351 54.5018 30.6422 54.3411 30.9056C54.1804 31.1691 54.0562 31.471 53.9683 31.8113C53.8805 32.1526 53.8366 32.5184 53.8366 32.9086C53.8366 33.2978 53.8855 33.6605 53.9833 33.9968C54.0811 34.3332 54.2129 34.6281 54.3785 34.8815C54.5442 35.135 54.7463 35.3351 54.9848 35.4818C55.2233 35.6275 55.4838 35.7004 55.7662 35.7004C56.2442 35.7004 56.6489 35.5103 56.9802 35.13V36.6509C56.7467 36.7777 56.4762 36.8825 56.1689 36.9653C55.8615 37.0481 55.5371 37.0895 55.1958 37.0895C54.8066 37.0895 54.4244 37.0187 54.0492 36.877C53.6739 36.7363 53.3401 36.5047 53.0477 36.1824C52.6775 35.7632 52.4045 35.2443 52.2289 34.6256C52.0533 34.0068 51.9654 33.3906 51.9654 32.7768ZM65.6921 30.0718V28.6976C66.219 28.7465 66.6945 28.8883 67.1187 29.1228C67.5418 29.3563 67.9046 29.6582 68.207 30.0284C68.5093 30.3987 68.7409 30.8228 68.9015 31.3008C69.0622 31.7779 69.1426 32.2749 69.1426 32.7918C69.1426 33.0253 69.1281 33.2588 69.0991 33.4924H64.0844V32.2065H67.4615C67.4615 31.953 67.4201 31.7095 67.3372 31.476C67.2544 31.2415 67.1327 31.0244 66.972 30.8248C66.8113 30.6252 66.6237 30.4571 66.4091 30.3203C66.1946 30.1846 65.9556 30.1018 65.6921 30.0718ZM65.6337 35.642C65.7415 35.642 65.8757 35.63 66.0364 35.6061C66.1971 35.5811 66.3677 35.5372 66.5483 35.4743C66.728 35.4105 66.9081 35.3301 67.0887 35.2333C67.2694 35.1355 67.4275 35.0183 67.5633 34.8815L68.207 35.862C67.8856 36.2612 67.5104 36.5631 67.0813 36.7677C66.6521 36.9723 66.1062 37.0746 65.4436 37.0746C64.9077 37.0746 64.4062 36.9648 63.9392 36.7452C63.4711 36.5267 63.0714 36.2273 62.7401 35.8471C62.4088 35.4668 62.1453 35.0232 61.9497 34.5163C61.7551 34.0093 61.6578 33.4634 61.6578 32.8786C61.6578 32.3238 61.7481 31.7978 61.9288 31.3008C62.1084 30.8039 62.3544 30.3677 62.6668 29.9925C62.9781 29.6173 63.3409 29.3124 63.755 29.0779C64.1702 28.8443 64.6163 28.7131 65.0933 28.6842V30.0868C64.733 30.1547 64.4356 30.3009 64.2011 30.5254C63.9676 30.75 63.785 31.0059 63.6532 31.2934C63.5215 31.5808 63.4292 31.8757 63.3763 32.178C63.3224 32.4794 63.2955 32.7374 63.2955 32.952C63.2955 33.3322 63.3419 33.6855 63.4347 34.0118C63.5265 34.3381 63.6702 34.6211 63.8658 34.8606C64.0604 35.0991 64.3014 35.2887 64.5888 35.4294C64.8762 35.5711 65.2245 35.642 65.6337 35.642Z"/>
</mask>
<path d="M40.3872 27.2366L39.1747 28.3174C38.9501 28.0649 38.7111 27.8753 38.4576 27.7486C38.2051 27.6218 37.9327 27.5485 37.6403 27.5285V26.081C38.7311 26.1299 39.6467 26.5151 40.3872 27.2366ZM37.6403 37.0895V35.642C37.9327 35.613 38.2076 35.5352 38.4651 35.4085C38.7236 35.2817 38.9601 35.0966 39.1747 34.8531L40.3872 35.9204C40.0169 36.2807 39.6028 36.5581 39.1447 36.7527C38.6866 36.9483 38.1852 37.0606 37.6403 37.0895ZM32.9024 31.5778C32.9024 30.7105 33.0072 29.9456 33.2168 29.283C33.4264 28.6203 33.7168 28.0599 34.088 27.6019C34.4583 27.1438 34.8944 26.788 35.3964 26.5346C35.8973 26.2811 36.4452 26.1299 37.04 26.081V27.5435C36.7187 27.5924 36.4168 27.7022 36.1344 27.8728C35.8509 28.0425 35.6024 28.2885 35.3889 28.6108C35.1743 28.9322 35.0062 29.3388 34.8844 29.8308C34.7626 30.3228 34.6968 30.9051 34.6868 31.5778C34.6968 32.2604 34.7626 32.8452 34.8844 33.3322C35.0062 33.8192 35.1743 34.2284 35.3889 34.5597C35.6024 34.891 35.8534 35.1445 36.1418 35.3201C36.4293 35.4958 36.7286 35.6031 37.04 35.642V37.0746C36.4452 37.0356 35.8973 36.8894 35.3964 36.636C34.8944 36.3825 34.4583 36.0267 34.088 35.5686C33.7168 35.1106 33.4264 34.5477 33.2168 33.8801C33.0072 33.2124 32.9024 32.445 32.9024 31.5778ZM46.6889 30.1018V28.7276C47.2248 28.7565 47.7118 28.8858 48.1499 29.1153C48.5891 29.3438 48.9573 29.6457 49.2547 30.0209C49.5511 30.3962 49.7821 30.8323 49.9478 31.3293C50.1134 31.8263 50.1963 32.3577 50.1963 32.9235C50.1963 33.4884 50.1114 34.0168 49.9418 34.5088C49.7711 35.0008 49.5346 35.4299 49.2322 35.7962C48.9299 36.1614 48.5596 36.4558 48.1215 36.6794C47.6824 36.9039 47.2049 37.0356 46.6889 37.0746V35.6719C47.1759 35.5641 47.5731 35.2568 47.8805 34.7498C48.1869 34.2438 48.3401 33.6351 48.3401 32.9235C48.3401 32.5623 48.3036 32.2235 48.2308 31.9071C48.1579 31.5907 48.0482 31.3058 47.9015 31.0523C47.7558 30.7989 47.5806 30.5893 47.376 30.4236C47.1714 30.258 46.9424 30.1507 46.6889 30.1018ZM42.6097 32.8936C42.6097 32.3287 42.6926 31.8023 42.8582 31.3143C43.0239 30.8273 43.2604 30.4012 43.5678 30.0359C43.8742 29.6707 44.2419 29.3758 44.671 29.1512C45.1002 28.9267 45.5727 28.7905 46.0887 28.7426V30.1018C45.6016 30.2086 45.2119 30.5154 44.9195 31.0224C44.6271 31.5294 44.4809 32.1386 44.4809 32.8502C44.4809 33.2104 44.5174 33.5512 44.5902 33.8726C44.6641 34.1949 44.7688 34.4828 44.9046 34.7363C45.0413 34.9888 45.2094 35.1979 45.409 35.3636C45.6086 35.5292 45.8352 35.632 46.0887 35.6719V37.0746C45.5527 37.0356 45.0707 36.9019 44.6426 36.6734C44.2135 36.4438 43.8477 36.144 43.5453 35.7737C43.243 35.4035 43.0114 34.9699 42.8508 34.4729C42.6901 33.9759 42.6097 33.4495 42.6097 32.8936ZM57.579 25.6573H59.3633V37.0162H57.6823L57.579 36.0372V25.6573ZM51.9654 32.7768C51.9654 32.0164 52.0702 31.3782 52.2798 30.8622C52.4894 30.3453 52.7598 29.9261 53.0911 29.6048C53.4225 29.2835 53.7907 29.0519 54.1959 28.9102C54.6001 28.7685 54.9968 28.6976 55.386 28.6976C55.6883 28.6976 55.9763 28.7321 56.2497 28.8009C56.5221 28.8688 56.7656 28.9661 56.9802 29.0928V30.6422C56.8145 30.4665 56.6294 30.3253 56.4248 30.2185C56.2203 30.1118 55.9912 30.0584 55.7377 30.0584C55.4354 30.0584 55.1674 30.1337 54.9339 30.2844C54.6994 30.4351 54.5018 30.6422 54.3411 30.9056C54.1804 31.1691 54.0562 31.471 53.9683 31.8113C53.8805 32.1526 53.8366 32.5184 53.8366 32.9086C53.8366 33.2978 53.8855 33.6605 53.9833 33.9968C54.0811 34.3332 54.2129 34.6281 54.3785 34.8815C54.5442 35.135 54.7463 35.3351 54.9848 35.4818C55.2233 35.6275 55.4838 35.7004 55.7662 35.7004C56.2442 35.7004 56.6489 35.5103 56.9802 35.13V36.6509C56.7467 36.7777 56.4762 36.8825 56.1689 36.9653C55.8615 37.0481 55.5371 37.0895 55.1958 37.0895C54.8066 37.0895 54.4244 37.0187 54.0492 36.877C53.6739 36.7363 53.3401 36.5047 53.0477 36.1824C52.6775 35.7632 52.4045 35.2443 52.2289 34.6256C52.0533 34.0068 51.9654 33.3906 51.9654 32.7768ZM65.6921 30.0718V28.6976C66.219 28.7465 66.6945 28.8883 67.1187 29.1228C67.5418 29.3563 67.9046 29.6582 68.207 30.0284C68.5093 30.3987 68.7409 30.8228 68.9015 31.3008C69.0622 31.7779 69.1426 32.2749 69.1426 32.7918C69.1426 33.0253 69.1281 33.2588 69.0991 33.4924H64.0844V32.2065H67.4615C67.4615 31.953 67.4201 31.7095 67.3372 31.476C67.2544 31.2415 67.1327 31.0244 66.972 30.8248C66.8113 30.6252 66.6237 30.4571 66.4091 30.3203C66.1946 30.1846 65.9556 30.1018 65.6921 30.0718ZM65.6337 35.642C65.7415 35.642 65.8757 35.63 66.0364 35.6061C66.1971 35.5811 66.3677 35.5372 66.5483 35.4743C66.728 35.4105 66.9081 35.3301 67.0887 35.2333C67.2694 35.1355 67.4275 35.0183 67.5633 34.8815L68.207 35.862C67.8856 36.2612 67.5104 36.5631 67.0813 36.7677C66.6521 36.9723 66.1062 37.0746 65.4436 37.0746C64.9077 37.0746 64.4062 36.9648 63.9392 36.7452C63.4711 36.5267 63.0714 36.2273 62.7401 35.8471C62.4088 35.4668 62.1453 35.0232 61.9497 34.5163C61.7551 34.0093 61.6578 33.4634 61.6578 32.8786C61.6578 32.3238 61.7481 31.7978 61.9288 31.3008C62.1084 30.8039 62.3544 30.3677 62.6668 29.9925C62.9781 29.6173 63.3409 29.3124 63.755 29.0779C64.1702 28.8443 64.6163 28.7131 65.0933 28.6842V30.0868C64.733 30.1547 64.4356 30.3009 64.2011 30.5254C63.9676 30.75 63.785 31.0059 63.6532 31.2934C63.5215 31.5808 63.4292 31.8757 63.3763 32.178C63.3224 32.4794 63.2955 32.7374 63.2955 32.952C63.2955 33.3322 63.3419 33.6855 63.4347 34.0118C63.5265 34.3381 63.6702 34.6211 63.8658 34.8606C64.0604 35.0991 64.3014 35.2887 64.5888 35.4294C64.8762 35.5711 65.2245 35.642 65.6337 35.642Z" fill="white" stroke="black" mask="url(#path-2-inside-1_9_2)"/>
<path d="M20.9935 18.7614C20.3905 19.3644 18.0802 20.317 16.4202 20.9509C15.7162 21.2197 15.027 20.5305 15.2958 19.8265C15.9296 18.1664 16.8822 15.8561 17.4852 15.2531C18.4545 14.2839 20.0242 14.2839 20.9935 15.2531C21.9628 16.2224 21.9628 17.7922 20.9935 18.7614Z" fill="#FFCE29"/>
<path d="M28.6568 19.107L26.5289 21.235C26.0806 21.6833 25.3151 21.477 25.1527 20.8642L23.1061 13.1426L15.3821 11.0942C14.7694 10.9317 14.5632 10.1662 15.0114 9.71803L17.1396 7.58986C17.6713 7.05816 18.3981 6.76828 19.1498 6.78806L27.0966 6.9974L29.2492 9.15001L29.4586 17.0968C29.4784 17.8485 29.1885 18.5753 28.6568 19.107Z" fill="#F96464"/>
<path opacity="0.4" d="M15.7546 9.77636L16.7883 8.74052C16.9208 8.60772 17.1359 8.60755 17.2686 8.74014C17.4012 8.8726 17.4014 9.0875 17.269 9.22017L16.2353 10.256C16.1028 10.3888 15.8877 10.389 15.755 10.2564C15.6224 10.1239 15.6222 9.90904 15.7546 9.77636Z" fill="white"/>
<path opacity="0.08" d="M28.6558 19.1076L26.5286 21.2347C26.0804 21.6829 25.3154 21.478 25.1521 20.8634L25.1137 20.7162C25.3441 20.7418 25.5874 20.6682 25.7747 20.4809L27.9018 18.3537C28.4348 17.8207 28.7229 17.0941 28.7037 16.3418L28.4941 8.39496L29.2495 9.15044L29.4592 17.0973C29.4785 17.8495 29.1888 18.5746 28.6558 19.1076Z" fill="black"/>
<path d="M22.5621 16.8216C25.084 16.6014 28.7044 14.5609 31.9764 11.2889C35.2474 8.01789 35.9271 3.81416 36.0454 1.64135C36.0898 0.826462 35.4186 0.155352 34.6036 0.199913C32.4312 0.318743 28.2285 0.999362 24.9577 4.27021C21.6857 7.54219 19.6452 11.1625 19.4244 13.684L22.5621 16.8216Z" fill="#F2F0F0"/>
<path d="M34.78 7.1161C35.6973 4.98664 35.9743 2.94713 36.0454 1.6414C36.0898 0.826462 35.4186 0.155352 34.6036 0.199913C33.2982 0.271321 31.2592 0.548744 29.1301 1.46627L34.78 7.1161Z" fill="#F96464"/>
<path d="M22.6322 17.6658C22.4182 17.8799 22.0711 17.8799 21.857 17.6658L18.5808 14.3896C18.3668 14.1756 18.3668 13.8285 18.5808 13.6144C18.7949 13.4003 19.1419 13.4003 19.356 13.6144L22.6322 16.8906C22.8463 17.1047 22.8463 17.4517 22.6322 17.6658Z" fill="#6D6D6D"/>
<path d="M22.6012 15.1544C22.1221 15.6334 18.1916 18.8897 17.7759 18.474C17.3569 18.055 20.6132 14.1245 21.0923 13.6454C21.5751 13.1626 23.0214 12.3906 23.4403 12.8096C23.856 13.2253 23.0841 14.6716 22.6012 15.1544Z" fill="#F96464"/>
<path d="M25.5955 9.27743C24.7347 7.65801 25.3496 5.64737 26.969 4.78652C28.5885 3.92568 30.5991 4.54063 31.4599 6.16005C32.3208 7.77946 31.7058 9.79011 30.0864 10.6509C28.467 11.5118 26.4564 10.8968 25.5955 9.27743Z" fill="#6D6D6D"/>
<path d="M26.2807 8.91313C25.6211 7.67215 26.0923 6.13137 27.3333 5.47169C28.5743 4.81202 30.1151 5.28326 30.7747 6.52424C31.4344 7.76522 30.9632 9.30601 29.7222 9.96568C28.4812 10.6254 26.9404 10.1541 26.2807 8.91313Z" fill="#66D5F2"/>
<path d="M35.7243 0.520755C35.1467 -0.0568564 34.4511 0.0711885 33.4816 0.190018C33.4787 0.190397 33.4759 0.190691 33.473 0.191028C31.1347 0.478929 27.6734 1.39927 24.8801 4.19265C24.0424 5.03035 23.2788 5.89771 22.6024 6.7692L19.1527 6.67827C18.3726 6.65555 17.6125 6.96171 17.062 7.51226L14.9339 9.64042C14.4261 10.1485 14.6588 11.0157 15.3539 11.2002L19.5746 12.3196C19.4636 12.7142 19.3834 13.0956 19.3386 13.4593C19.0826 13.2847 18.7301 13.31 18.5033 13.5369C18.2467 13.7934 18.2467 14.2107 18.5033 14.4672L18.5477 14.5116C18.121 14.6292 17.7292 14.8539 17.4076 15.1756C16.8015 15.7817 15.8689 18.0181 15.1933 19.7874C14.8901 20.5821 15.6689 21.3553 16.4593 21.0534C18.2285 20.3778 20.4649 19.4452 21.0711 18.8391C21.3991 18.5111 21.6193 18.1161 21.7339 17.6979L21.7794 17.7434C22.036 18 22.4533 17.9999 22.7098 17.7434C22.937 17.5164 22.9621 17.1636 22.7869 16.9076C23.151 16.8628 23.5329 16.7826 23.9279 16.6714L25.0466 20.8924C25.2307 21.5869 26.0978 21.8212 26.6064 21.3126L28.7343 19.1846C29.2848 18.6342 29.5888 17.8722 29.5683 17.094L29.4774 13.6442C33.1656 10.7819 35.4415 7.76225 36.0547 2.77103C36.1665 1.86091 36.3145 1.11053 35.7243 0.520755ZM35.5692 0.675856C36.0914 1.19788 35.9427 1.87173 35.8396 2.72196C35.6949 3.90715 35.385 5.38536 34.7425 6.92354L29.3228 1.50362C30.8598 0.861338 32.3367 0.551136 33.5212 0.406133C34.4766 0.290123 35.0796 0.186273 35.5692 0.675856ZM15.4101 10.9881C14.8794 10.8474 14.7002 10.1843 15.0889 9.79553L17.2171 7.66741C17.7269 7.15767 18.4338 6.87751 19.1469 6.89771L22.4371 6.98439C21.0936 8.75488 20.1183 10.5337 19.6361 12.1089L15.4101 10.9881ZM18.6584 13.692C18.8293 13.521 19.1075 13.521 19.2784 13.692C20.4007 14.817 19.0558 13.4695 20.1525 14.566C19.9784 14.7774 19.791 15.0094 19.5988 15.2526L18.6584 14.3121C18.4874 14.1412 18.4874 13.8629 18.6584 13.692ZM21.1698 13.7229C21.6482 13.2448 23.0226 12.547 23.3627 12.8871C23.6991 13.2235 22.9997 14.6008 22.5236 15.0768C22.0024 15.598 18.2674 18.6366 17.854 18.397C17.5905 18.0137 20.611 14.2817 21.1698 13.7229ZM20.916 18.6839C20.4644 19.1354 18.8538 19.9042 16.381 20.8484C15.765 21.0836 15.1635 20.4806 15.3983 19.8656C16.3425 17.3928 17.1112 15.7823 17.5627 15.3307C17.8876 15.0059 18.2903 14.7882 18.7283 14.6923L19.4622 15.4262C19.0383 15.9684 17.3035 18.1571 17.6984 18.5516C18.1042 18.9573 20.3045 17.1885 20.8207 16.7846L21.5508 17.5147C21.4584 17.9434 21.2486 18.3513 20.916 18.6839ZM22.5547 17.5883C22.3837 17.7592 22.1055 17.7592 21.9345 17.5883L20.9943 16.648C21.2374 16.4558 21.4693 16.2682 21.6807 16.0942C21.793 16.2065 22.5661 16.9795 22.5547 16.9682C22.7256 17.1391 22.7256 17.4173 22.5547 17.5883ZM29.349 17.0997C29.3679 17.818 29.0874 18.5213 28.5793 19.0294L26.4513 21.1574C26.063 21.5456 25.3997 21.3678 25.2588 20.8362L24.1385 16.6098C25.7135 16.1276 27.492 15.1526 29.2623 13.8093L29.349 17.0997ZM31.8989 11.2113C28.7535 14.3567 25.1987 16.4576 22.6043 16.7076L21.8504 15.9538C22.2592 15.6136 22.5671 15.3436 22.6788 15.2319C23.1602 14.7505 24.0174 13.2315 23.5179 12.7321C23.0227 12.2369 21.5012 13.0814 21.0148 13.5679C20.9029 13.6797 20.6329 13.9877 20.293 14.3963L19.5386 13.6419C19.7893 11.0474 21.8902 7.49291 25.0352 4.34788C26.3079 3.07521 27.7224 2.19863 29.1035 1.59468L34.6516 7.14286C34.0479 8.52417 33.1715 9.93872 31.8989 11.2113Z" fill="black"/>
<path d="M30.9532 5.29337C29.6159 3.95595 27.4396 3.95574 26.1018 5.29337C24.7643 6.63087 24.7643 8.80717 26.1018 10.1447C27.4389 11.4821 29.6157 11.4824 30.9532 10.1447C32.2941 8.80398 32.2954 6.63559 30.9532 5.29337ZM30.7981 9.98958C29.5461 11.2415 27.5089 11.2415 26.2569 9.98958C25.0049 8.73753 25.0049 6.70047 26.2569 5.44843C27.5086 4.19672 29.5459 4.1963 30.7981 5.44843C32.0532 6.70359 32.0546 8.73324 30.7981 9.98958Z" fill="black"/>
<path d="M30.4045 5.84211C29.3697 4.80731 27.6856 4.80706 26.6506 5.84211C25.6136 6.87909 25.6131 8.55874 26.6506 9.59597C27.6877 10.6331 29.3672 10.6333 30.4045 9.59597C31.4395 8.56114 31.4395 6.87711 30.4045 5.84211ZM30.2494 9.44087C29.3 10.3904 27.7551 10.3902 26.8057 9.44087C25.8543 8.48948 25.8541 6.94873 26.8057 5.99721C27.7553 5.04779 29.2997 5.04775 30.2494 5.99721C31.1989 6.94675 31.1989 8.4915 30.2494 9.44087Z" fill="black"/>
<path opacity="0.08" d="M31.9769 11.2888C28.7054 14.5604 25.0833 16.6011 22.5624 16.8204L22.007 16.265C24.5279 16.0457 28.15 14.005 31.4215 10.7334C34.6915 7.46344 35.3717 3.2587 35.4902 1.08514C35.5046 0.824251 35.4438 0.574557 35.3285 0.363281C35.7767 0.603381 36.0744 1.08993 36.0456 1.64053C35.9272 3.8141 35.2469 8.01883 31.9769 11.2888Z" fill="#1A0907"/>
</g>
<defs>
<clipPath id="clip0_9_2">
<rect width="69.25" height="37.25" fill="white"/>
</clipPath>
</defs>
</svg>
