<svg width="139" height="75" viewBox="0 0 139 75" fill="none" xmlns="http://www.w3.org/2000/svg">
<g clip-path="url(#clip0_8_20)">
<path d="M40.6069 38.1608L40.6049 38.1622C40.0023 38.5852 38.8948 38.8659 37.1277 38.8659C35.3349 38.8659 34.1178 38.5812 33.3705 38.1136C32.6819 37.6828 32.3377 37.0658 32.3377 36.15C32.3377 35.1824 32.6778 34.6032 33.2912 34.2425C34.0002 33.8255 35.1831 33.5678 36.946 33.5678C38.7113 33.5678 39.8771 33.8264 40.559 34.2381C41.1488 34.5941 41.4857 35.1743 41.4857 36.1569C41.4857 37.1609 41.1604 37.7749 40.6069 38.1608ZM60.8977 69.0615H59.3885V44.9529H66.8259V61.8958C66.8259 63.0595 66.7556 64.1042 66.618 65.0323C66.4877 65.9111 66.2148 66.6304 65.8181 67.212L65.8162 67.2147C65.0395 68.3644 63.504 69.0615 60.8977 69.0615ZM49.8438 64.9255L49.8438 64.9254C50.5507 64.4855 51.5064 64.2365 52.7626 64.2365C54.0153 64.2365 55.0238 64.4842 55.8225 64.9401L55.8241 64.941C56.6254 65.3957 56.9184 65.9255 56.9184 66.5479C56.9184 67.2257 56.6306 67.7645 55.9389 68.2108C55.2458 68.6573 54.3057 68.9107 53.0643 68.9107C51.7786 68.9107 50.7638 68.6568 49.9798 68.1955C49.1703 67.716 48.8777 67.1761 48.8777 66.565C48.8777 66.1981 48.9629 65.8978 49.1178 65.6423C49.2879 65.3632 49.5247 65.124 49.8438 64.9255ZM21.157 40.8192V39.2415H27.1545V47.1999H26.0292C24.8284 47.1999 24.0565 47.0683 23.6256 46.8753C23.0997 46.637 22.7297 46.3871 22.4834 46.1408C22.236 45.8934 22.0031 45.546 21.7984 45.0747C21.3878 44.1164 21.157 42.7157 21.157 40.8192ZM10.3273 60.5253V39.2415H17.8332V60.5253H10.3273ZM0.951187 47.1999V39.2415H6.95208V40.8192C6.95208 43.6553 6.4271 45.3359 5.61535 46.1477C4.96927 46.7938 3.84999 47.1999 2.07641 47.1999H0.951187ZM33.277 60.5253V44.9666H40.7829V60.5253H33.277ZM47.0025 52.9379C47.0025 51.777 47.1547 50.7116 47.4527 49.7369C47.7485 48.7748 48.2024 47.9449 48.8113 47.2374C50.1094 45.7423 51.9905 44.9529 54.5727 44.9529H55.1117V60.5253H54.9909C52.3159 60.5253 50.3526 59.7964 48.9905 58.4344C47.6896 57.1334 47.0025 55.3322 47.0025 52.9379ZM84.6997 60.5253V44.9529H85.2387C87.8186 44.9529 89.6987 45.7423 90.9968 47.2376C92.1794 48.6102 92.8055 50.463 92.8055 52.8728C92.8055 55.3146 92.1161 57.1357 90.8175 58.4344C89.4553 59.7965 87.4931 60.5253 84.8205 60.5253H84.6997ZM72.3788 52.9379C72.3788 51.777 72.5311 50.7116 72.8291 49.7369C73.1247 48.775 73.5785 47.9453 74.1872 47.2379C75.4853 45.7425 77.3665 44.9529 79.949 44.9529H80.488V60.5253H80.3673C77.6922 60.5253 75.7289 59.7964 74.3669 58.4344C73.0659 57.1334 72.3788 55.3322 72.3788 52.9379Z" fill="#1A0907" stroke="white" stroke-width="1.5"/>
<path d="M80.7744 54.4733L78.3493 56.6348C77.9002 56.1299 77.4222 55.7506 76.9152 55.4972C76.4103 55.2437 75.8654 55.097 75.2806 55.0571V52.162C77.4621 52.2598 79.2934 53.0302 80.7744 54.4733ZM75.2806 74.1791V71.284C75.8654 71.2261 76.4152 71.0704 76.9302 70.8169C77.4471 70.5634 77.9202 70.1932 78.3493 69.7062L80.7744 71.8408C80.0339 72.5614 79.2056 73.1162 78.2894 73.5054C77.3733 73.8966 76.3703 74.1212 75.2806 74.1791ZM65.8049 63.1555C65.8049 61.4211 66.0145 59.8912 66.4336 58.5659C66.8527 57.2406 67.4336 56.1199 68.176 55.2038C68.9165 54.2876 69.7888 53.5761 70.7927 53.0691C71.7947 52.5622 72.8904 52.2598 74.08 52.162V55.087C73.4373 55.1848 72.8336 55.4044 72.2687 55.7457C71.7019 56.085 71.2049 56.577 70.7777 57.2216C70.3486 57.8643 70.0123 58.6777 69.7688 59.6617C69.5253 60.6457 69.3936 61.8103 69.3736 63.1555C69.3936 64.5208 69.5253 65.6904 69.7688 66.6644C70.0123 67.6384 70.3486 68.4567 70.7777 69.1194C71.2049 69.782 71.7068 70.289 72.2837 70.6403C72.8585 70.9916 73.4573 71.2061 74.08 71.284V74.1491C72.8904 74.0713 71.7947 73.7789 70.7927 73.2719C69.7888 72.765 68.9165 72.0534 68.176 71.1373C67.4336 70.2211 66.8527 69.0954 66.4336 67.7602C66.0145 66.4249 65.8049 64.89 65.8049 63.1555ZM93.3779 60.2036V57.4552C94.4497 57.5131 95.4237 57.7715 96.2999 58.2306C97.1781 58.6877 97.9146 59.2914 98.5094 60.0419C99.1022 60.7924 99.5642 61.6646 99.8956 62.6586C100.227 63.6525 100.393 64.7154 100.393 65.8471C100.393 66.9768 100.223 68.0336 99.8836 69.0176C99.5423 70.0016 99.0692 70.8598 98.4645 71.5923C97.8597 72.3229 97.1192 72.9117 96.243 73.3587C95.3648 73.8078 94.4098 74.0713 93.3779 74.1491V71.3438C94.3519 71.1283 95.1462 70.5135 95.761 69.4996C96.3737 68.4877 96.6801 67.2702 96.6801 65.8471C96.6801 65.1245 96.6073 64.4469 96.4616 63.8142C96.3159 63.1815 96.0963 62.6117 95.8029 62.1047C95.5115 61.5977 95.1612 61.1786 94.7521 60.8473C94.3429 60.5159 93.8848 60.3014 93.3779 60.2036ZM85.2195 65.7872C85.2195 64.6575 85.3852 63.6046 85.7165 62.6286C86.0478 61.6546 86.5208 60.8023 87.1356 60.0718C87.7483 59.3413 88.4838 58.7515 89.3421 58.3024C90.2003 57.8534 91.1454 57.5809 92.1773 57.4851V60.2036C91.2033 60.4171 90.4239 61.0309 89.8391 62.0448C89.2543 63.0587 88.9619 64.2773 88.9619 65.7004C88.9619 66.4209 89.0347 67.1025 89.1804 67.7452C89.3281 68.3899 89.5377 68.9657 89.8091 69.4727C90.0826 69.9776 90.4189 70.3958 90.8181 70.7271C91.2173 71.0584 91.6703 71.264 92.1773 71.3438V74.1491C91.1055 74.0713 90.1415 73.8038 89.2852 73.3468C88.427 72.8877 87.6954 72.2879 87.0907 71.5474C86.4859 70.8069 86.0229 69.9397 85.7015 68.9457C85.3802 67.9518 85.2195 66.8989 85.2195 65.7872ZM115.158 51.3147H118.727V74.0324H115.365L115.158 72.0744V51.3147ZM103.931 65.5537C103.931 64.0328 104.14 62.7564 104.56 61.7245C104.979 60.6906 105.52 59.8523 106.182 59.2096C106.845 58.5669 107.581 58.1039 108.392 57.8204C109.2 57.537 109.994 57.3953 110.772 57.3953C111.377 57.3953 111.953 57.4642 112.499 57.6019C113.044 57.7376 113.531 57.9322 113.96 58.1857V61.2844C113.629 60.9331 113.259 60.6507 112.85 60.4371C112.441 60.2235 111.982 60.1167 111.475 60.1167C110.871 60.1167 110.335 60.2674 109.868 60.5688C109.399 60.8702 109.004 61.2844 108.682 61.8113C108.361 62.3382 108.112 62.942 107.937 63.6226C107.761 64.3052 107.673 65.0367 107.673 65.8171C107.673 66.5955 107.771 67.3211 107.967 67.9937C108.162 68.6663 108.426 69.2561 108.757 69.7631C109.088 70.27 109.493 70.6702 109.97 70.9636C110.447 71.255 110.968 71.4007 111.532 71.4007C112.488 71.4007 113.298 71.0205 113.96 70.2601V73.3019C113.493 73.5553 112.952 73.7649 112.338 73.9306C111.723 74.0962 111.074 74.1791 110.392 74.1791C109.613 74.1791 108.849 74.0374 108.098 73.7539C107.348 73.4725 106.68 73.0095 106.095 72.3648C105.355 71.5265 104.809 70.4886 104.458 69.2511C104.107 68.0136 103.931 66.7812 103.931 65.5537ZM131.384 60.1437V57.3953C132.438 57.4931 133.389 57.7765 134.237 58.2456C135.084 58.7126 135.809 59.3164 136.414 60.0569C137.019 60.7974 137.482 61.6456 137.803 62.6017C138.124 63.5557 138.285 64.5497 138.285 65.5836C138.285 66.0506 138.256 66.5177 138.198 66.9847H128.169V64.413H134.923C134.923 63.906 134.84 63.419 134.674 62.952C134.509 62.4829 134.265 62.0488 133.944 61.6496C133.623 61.2504 133.247 60.9141 132.818 60.6407C132.389 60.3692 131.911 60.2036 131.384 60.1437ZM131.267 71.284C131.483 71.284 131.751 71.26 132.073 71.2121C132.394 71.1622 132.735 71.0744 133.097 70.9487C133.456 70.8209 133.816 70.6602 134.177 70.4666C134.539 70.271 134.855 70.0365 135.127 69.7631L136.414 71.7241C135.771 72.5224 135.021 73.1262 134.163 73.5354C133.304 73.9445 132.212 74.1491 130.887 74.1491C129.815 74.1491 128.812 73.9296 127.878 73.4905C126.942 73.0534 126.143 72.4546 125.48 71.6941C124.818 70.9337 124.291 70.0465 123.899 69.0326C123.51 68.0186 123.316 66.9269 123.316 65.7572C123.316 64.6475 123.496 63.5957 123.858 62.6017C124.217 61.6077 124.709 60.7355 125.334 59.985C125.956 59.2345 126.682 58.6248 127.51 58.1557C128.34 57.6887 129.233 57.4262 130.187 57.3684V60.1736C129.466 60.3094 128.871 60.6018 128.402 61.0508C127.935 61.4999 127.57 62.0119 127.306 62.5867C127.043 63.1615 126.858 63.7513 126.753 64.3561C126.645 64.9589 126.591 65.4748 126.591 65.9039C126.591 66.6644 126.684 67.371 126.869 68.0236C127.053 68.6763 127.34 69.2421 127.732 69.7212C128.121 70.1982 128.603 70.5774 129.178 70.8588C129.752 71.1423 130.449 71.284 131.267 71.284Z" fill="#DB6153"/>
<path d="M41.987 37.5229C40.7811 38.7288 36.1604 40.634 32.8403 41.9017C31.4323 42.4393 30.054 41.061 30.5916 39.653C31.8592 36.3329 33.7644 31.7123 34.9704 30.5063C36.9089 28.5677 40.0485 28.5677 41.987 30.5063C43.9256 32.4448 43.9256 35.5843 41.987 37.5229Z" fill="#FFCE29"/>
<path d="M57.3136 38.2141L53.0577 42.47C52.1612 43.3665 50.6302 42.9541 50.3054 41.7285L46.2122 26.2853L30.7641 22.1883C29.5387 21.8633 29.1264 20.3325 30.0229 19.4361L34.2792 15.1797C35.3426 14.1163 36.7962 13.5366 38.2995 13.5761L54.1932 13.9948L58.4984 18.3L58.9171 34.1936C58.9568 35.697 58.377 37.1507 57.3136 38.2141Z" fill="#F96464"/>
<path opacity="0.4" d="M31.5092 19.5527L33.5766 17.481C33.8417 17.2154 34.2719 17.215 34.5372 17.4802C34.8024 17.7451 34.8027 18.1749 34.538 18.4403L32.4706 20.512C32.2056 20.7776 31.7753 20.7779 31.51 20.5127C31.2447 20.2478 31.2444 19.818 31.5092 19.5527Z" fill="white"/>
<path opacity="0.08" d="M57.3115 38.2152L53.0572 42.4695C52.1609 43.3658 50.6307 42.9561 50.3042 41.7268L50.2273 41.4323C50.6883 41.4836 51.1749 41.3363 51.5494 40.9617L55.8037 36.7074C56.8697 35.6414 57.4458 34.1881 57.4075 32.6836L56.9881 16.7899L58.4991 18.3009L58.9184 34.1946C58.957 35.6991 58.3775 37.1492 57.3115 38.2152Z" fill="black"/>
<path d="M45.1242 33.6433C50.1681 33.2029 57.4088 29.1218 63.9528 22.5778C70.4948 16.0358 71.8542 7.62832 72.0908 3.28271C72.1796 1.65292 70.8371 0.310705 69.2073 0.399827C64.8624 0.637486 56.457 1.99872 49.9154 8.54041C43.3714 15.0844 39.2904 22.3251 38.8488 27.368L45.1242 33.6433Z" fill="#F2F0F0"/>
<path d="M69.56 14.2322C71.3946 9.97327 71.9486 5.89427 72.0908 3.28279C72.1796 1.65292 70.8371 0.310705 69.2073 0.399827C66.5963 0.542641 62.5184 1.09749 58.2603 2.93253L69.56 14.2322Z" fill="#F96464"/>
<path d="M45.2644 35.3316C44.8363 35.7597 44.1422 35.7597 43.714 35.3316L37.1616 28.7792C36.7335 28.3511 36.7335 27.657 37.1616 27.2288C37.5897 26.8007 38.2839 26.8007 38.7121 27.2288L45.2644 33.7812C45.6925 34.2094 45.6925 34.9035 45.2644 35.3316Z" fill="#6D6D6D"/>
<path d="M45.2024 30.3087C44.2443 31.2669 36.3833 37.7794 35.5518 36.948C34.7139 36.1101 41.2264 28.249 42.1846 27.2909C43.1502 26.3252 46.0427 24.7812 46.8807 25.6192C47.7121 26.4505 46.1681 29.3431 45.2024 30.3087Z" fill="#F96464"/>
<path d="M51.1911 18.5548C49.4694 15.316 50.6993 11.2947 53.9381 9.57299C57.1769 7.85131 61.1982 9.0812 62.9199 12.32C64.6416 15.5589 63.4117 19.5802 60.1729 21.3018C56.934 23.0235 52.9127 21.7936 51.1911 18.5548Z" fill="#6D6D6D"/>
<path d="M52.5615 17.8263C51.2421 15.3444 52.1846 12.2628 54.6666 10.9434C57.1485 9.62409 60.2301 10.5666 61.5495 13.0485C62.8688 15.5305 61.9263 18.6121 59.4444 19.9314C56.9624 21.2508 53.8808 20.3083 52.5615 17.8263Z" fill="#66D5F2"/>
<path d="M71.4485 1.04151C70.2933 -0.113713 68.9021 0.142377 66.9632 0.380036C66.9574 0.380794 66.9519 0.381383 66.9461 0.382056C62.2695 0.957858 55.3468 2.79854 49.7602 8.3853C48.0848 10.0607 46.5575 11.7954 45.2048 13.5384L38.3053 13.3565C36.7451 13.3111 35.225 13.9234 34.1241 15.0245L29.8678 19.2808C28.8522 20.297 29.3175 22.0314 30.7077 22.4004L39.1492 24.6391C38.9272 25.4283 38.7669 26.1912 38.6771 26.9187C38.1651 26.5693 37.4601 26.6201 37.0065 27.0737C36.4934 27.5868 36.4934 28.4214 37.0065 28.9345L37.0953 29.0233C36.242 29.2583 35.4585 29.7079 34.8153 30.3512C33.603 31.5635 31.7379 36.0363 30.3866 39.5749C29.7802 41.1641 31.3378 42.7107 32.9185 42.1068C36.4571 40.7555 40.9299 38.8904 42.1422 37.6782C42.7981 37.0221 43.2386 36.2322 43.4678 35.3958L43.5588 35.4869C44.0719 36 44.9067 35.9997 45.4196 35.4869C45.8739 35.0328 45.9241 34.3272 45.5739 33.8153C46.3021 33.7256 47.0657 33.5651 47.8559 33.3429L50.0933 41.7848C50.4614 43.1738 52.1956 43.6424 53.2128 42.6252L57.4686 38.3692C58.5696 37.2683 59.1775 35.7444 59.1366 34.188L58.9548 27.2883C66.3311 21.5638 70.883 15.5245 72.1093 5.54206C72.3329 3.72183 72.6289 2.22105 71.4485 1.04151ZM71.1383 1.35171C72.1829 2.39576 71.8855 3.74345 71.6793 5.44393C71.3899 7.81429 70.77 10.7707 69.4849 13.8471L58.6457 3.00725C61.7197 1.72268 64.6735 1.10227 67.0425 0.812266C68.9532 0.580246 70.1592 0.372546 71.1383 1.35171ZM30.8202 21.9762C29.7588 21.6948 29.4003 20.3687 30.1779 19.5911L34.4343 15.3348C35.4538 14.3153 36.8676 13.755 38.2937 13.7954L44.8743 13.9688C42.1872 17.5098 40.2367 21.0674 39.2721 24.2178L30.8202 21.9762ZM37.3167 27.3839C37.6587 27.042 38.215 27.042 38.5569 27.3839C40.8014 29.6339 38.1115 26.939 40.3049 29.1319C39.9568 29.5548 39.5819 30.0188 39.1976 30.5051L37.3167 28.6243C36.9748 28.2824 36.9748 27.7258 37.3167 27.3839ZM42.3397 27.4458C43.2963 26.4896 46.0452 25.094 46.7255 25.7742C47.3982 26.4469 45.9993 29.2016 45.0472 30.1536C44.0048 31.196 36.5348 37.2731 35.7079 36.7939C35.1809 36.0273 41.222 28.5634 42.3397 27.4458ZM41.8319 37.3679C40.9288 38.2708 37.7077 39.8083 32.7621 41.6967C31.5299 42.1673 30.3271 40.9612 30.7966 39.7312C32.685 34.7857 34.2225 31.5646 35.1255 30.6614C35.7752 30.0117 36.5806 29.5764 37.4566 29.3846L38.9245 30.8524C38.0765 31.9368 34.6071 36.3141 35.3969 37.1031C36.2083 37.9145 40.609 34.377 41.6414 33.5693L43.1016 35.0295C42.9168 35.8867 42.4971 36.7025 41.8319 37.3679ZM45.1094 35.1765C44.7675 35.5184 44.211 35.5184 43.869 35.1765L41.9885 33.296C42.4749 32.9115 42.9387 32.5365 43.3615 32.1884C43.586 32.413 45.1321 33.959 45.1094 33.9364C45.4513 34.2783 45.4513 34.8347 45.1094 35.1765ZM58.6979 34.1994C58.7359 35.636 58.1748 37.0426 57.1585 38.0589L52.9027 42.3149C52.1259 43.0911 50.7994 42.7356 50.5175 41.6724L48.2771 33.2196C51.4271 32.2552 54.9841 30.3052 58.5246 27.6185L58.6979 34.1994ZM63.7977 22.4227C57.5069 28.7135 50.3974 32.9152 45.2086 33.4152L43.7009 31.9075C44.5183 31.2272 45.1342 30.6871 45.3575 30.4639C46.3204 29.501 48.0347 26.4631 47.0358 25.4641C46.0454 24.4738 43.0024 26.1629 42.0295 27.1357C41.8058 27.3595 41.2657 27.9754 40.5859 28.7926L39.0771 27.2838C39.5785 22.0949 43.7804 14.9858 50.0705 8.69575C52.6158 6.15043 55.4448 4.39727 58.207 3.18936L69.3032 14.2857C68.0957 17.0483 66.3429 19.8774 63.7977 22.4227Z" fill="black"/>
<path d="M61.9063 10.5867C59.2317 7.91189 54.8791 7.91147 52.2036 10.5867C49.5286 13.2617 49.5286 17.6143 52.2036 20.2894C54.8779 22.9641 59.2315 22.9647 61.9063 20.2894C64.5881 17.608 64.5907 13.2712 61.9063 10.5867ZM61.5961 19.9792C59.0923 22.483 55.0177 22.483 52.5138 19.9792C50.0097 17.4751 50.0097 13.4009 52.5138 10.8969C55.0172 8.39344 59.0918 8.3926 61.5961 10.8969C64.1063 13.4072 64.1093 17.4665 61.5961 19.9792Z" fill="black"/>
<path d="M60.8091 11.6843C58.7395 9.61469 55.3712 9.61418 53.3012 11.6843C51.2272 13.7582 51.2263 17.1175 53.3012 19.192C55.3754 21.2662 58.7344 21.2667 60.8091 19.192C62.8789 17.1223 62.8789 13.7543 60.8091 11.6843ZM60.4989 18.8818C58.6 20.7809 55.5102 20.7805 53.6113 18.8818C51.7085 16.979 51.7083 13.8975 53.6113 11.9945C55.5106 10.0956 58.5995 10.0956 60.4989 11.9945C62.3978 13.8936 62.3978 16.9831 60.4989 18.8818Z" fill="black"/>
<path opacity="0.08" d="M63.9539 22.5775C57.4107 29.1206 50.1665 33.2022 45.1247 33.6407L44.014 32.5299C49.0558 32.0914 56.2999 28.0099 62.8431 21.4667C69.383 14.9268 70.7435 6.51734 70.9804 2.17021C71.0092 1.64844 70.8875 1.14905 70.657 0.726501C71.5534 1.2067 72.1488 2.17981 72.0912 3.281C71.8543 7.62813 70.4939 16.0376 63.9539 22.5775Z" fill="#1A0907"/>
</g>
<defs>
<clipPath id="clip0_8_20">
<rect width="138.5" height="74.5" fill="white"/>
</clipPath>
</defs>
</svg>
