<svg width="363" height="87" viewBox="0 0 363 87" fill="none" xmlns="http://www.w3.org/2000/svg">
<path d="M81.9338 11.9368L81.9317 11.9382C80.5315 12.9212 78.1213 13.4819 74.5463 13.4819C70.9069 13.4819 68.3047 12.9083 66.6341 11.8631C65.0221 10.8546 64.2163 9.37114 64.2163 7.30007C64.2163 5.14854 64.9976 3.71803 66.4931 2.83855C68.0843 1.90277 70.6123 1.38565 74.1829 1.38565C77.7561 1.38565 80.2555 1.90364 81.7968 2.83412C83.2458 3.70895 84.0124 5.1428 84.0124 7.31379C84.0124 9.50625 83.2872 10.9933 81.9338 11.9368ZM122.087 73.873H118.318V24.1558H134.693V58.7916C134.693 61.1484 134.551 63.2752 134.269 65.1747C133.995 67.0247 133.415 68.5749 132.547 69.8466L132.545 69.8494C130.788 72.4503 127.406 73.873 122.087 73.873ZM99.5825 64.2142L99.5825 64.2141C101.149 63.2394 103.209 62.723 105.816 62.723C108.42 62.723 110.572 63.2382 112.308 64.2288L112.31 64.2297C114.094 65.242 114.878 66.525 114.878 68.0957C114.878 69.7335 114.149 71.0368 112.575 72.0522C111.034 73.0449 109.001 73.5714 106.42 73.5714C103.752 73.5714 101.582 73.0445 99.8699 72.0372C98.0795 70.9771 97.2965 69.6783 97.2965 68.13C97.2965 67.2715 97.4985 66.5334 97.8866 65.8938C98.2921 65.2287 98.8522 64.6686 99.5825 64.2142ZM41.8548 16.6385V12.733H55.3498V30.1498H52.3493C49.921 30.1498 48.2451 29.8879 47.2338 29.4343C46.1274 28.9332 45.3027 28.3873 44.7273 27.812C44.1509 27.2355 43.6369 26.4553 43.1991 25.447C42.3199 23.3963 41.8548 20.4779 41.8548 16.6385ZM20.1952 56.8006V12.733H36.7071V56.8006H20.1952ZM1.44287 30.1498V12.733H14.9448V16.6385C14.9448 22.3428 13.901 25.9764 12.0516 27.8257C10.5576 29.3197 8.08189 30.1498 4.44334 30.1498H1.44287ZM66.095 56.8006V24.1832H82.6068V56.8006H66.095ZM93.546 40.8759C93.546 38.4872 93.8596 36.2811 94.48 34.2525C95.1004 32.2346 96.0572 30.4815 97.3473 28.9834C100.117 25.7929 104.108 24.1558 109.437 24.1558H111.265V56.8006H110.273C104.785 56.8006 100.644 55.3015 97.7419 52.3991C94.9691 49.6262 93.546 45.8162 93.546 40.8759ZM168.941 56.8006V24.1558H170.769C176.093 24.1558 180.081 25.7926 182.851 28.9829C185.362 31.896 186.653 35.7913 186.653 40.7456C186.653 45.7769 185.227 49.6286 182.457 52.3991C179.554 55.3016 175.416 56.8006 169.933 56.8006H168.941ZM144.299 40.8759C144.299 38.4872 144.613 36.2811 145.233 34.2525C145.853 32.2351 146.81 30.4824 148.099 28.9845C150.869 25.7933 154.86 24.1558 160.19 24.1558H162.018V56.8006H161.026C155.538 56.8006 151.397 55.3015 148.495 52.3991C145.722 49.6262 144.299 45.8162 144.299 40.8759Z" fill="#1A0907" stroke="white" stroke-width="1.5"/>
<path d="M300.914 77.663C298.923 79.6542 291.294 82.7998 285.812 84.893C283.487 85.7807 281.211 83.5049 282.099 81.18C284.192 75.6982 287.338 68.069 289.329 66.0777C292.53 62.877 297.714 62.877 300.914 66.0777C304.115 69.2785 304.115 74.4622 300.914 77.663Z" fill="#FFCE29"/>
<path d="M326.221 78.8042L319.194 85.8312C317.713 87.3115 315.186 86.6305 314.649 84.6069L307.891 59.1083L282.384 52.3437C280.36 51.8071 279.68 49.2795 281.16 47.7994L288.188 40.7717C289.943 39.0159 292.343 38.0586 294.826 38.1239L321.068 38.8152L328.177 45.9237L328.868 72.166C328.934 74.6483 327.977 77.0484 326.221 78.8042Z" fill="#F96464"/>
<path opacity="0.4" d="M283.614 47.992L287.028 44.5714C287.465 44.1328 288.175 44.1323 288.614 44.5701C289.051 45.0075 289.052 45.7172 288.615 46.1553L285.201 49.5759C284.764 50.0144 284.053 50.015 283.615 49.5772C283.177 49.1397 283.177 48.4301 283.614 47.992Z" fill="white"/>
<path opacity="0.08" d="M326.217 78.806L319.193 85.8304C317.713 87.3104 315.186 86.6338 314.647 84.6041L314.52 84.1179C315.281 84.2026 316.085 83.9594 316.703 83.3409L323.728 76.3165C325.488 74.5564 326.439 72.1568 326.376 69.6728L325.683 43.4303L328.178 45.9251L328.871 72.1675C328.934 74.6516 327.978 77.0459 326.217 78.806Z" fill="black"/>
<path d="M306.094 71.2573C314.422 70.5302 326.378 63.7917 337.183 52.9869C347.985 42.1852 350.229 28.3034 350.62 21.1283C350.767 18.4373 348.55 16.2212 345.859 16.3683C338.685 16.7607 324.806 19.0083 314.005 29.8094C303.2 40.6143 296.462 52.5696 295.733 60.8961L306.094 71.2573Z" fill="#F2F0F0"/>
<path d="M346.441 39.2073C349.471 32.1752 350.385 25.4403 350.62 21.1284C350.767 18.4373 348.55 16.2212 345.859 16.3683C341.548 16.6041 334.815 17.5202 327.784 20.5501L346.441 39.2073Z" fill="#F96464"/>
<path d="M306.326 74.0449C305.619 74.7518 304.473 74.7518 303.766 74.0449L292.947 63.2262C292.24 62.5193 292.24 61.3732 292.947 60.6662C293.654 59.9594 294.8 59.9594 295.507 60.6662L306.326 71.485C307.033 72.192 307.033 73.3381 306.326 74.0449Z" fill="#6D6D6D"/>
<path d="M306.223 65.7515C304.641 67.3335 291.662 78.0865 290.289 76.7138C288.905 75.3303 299.658 62.3506 301.24 60.7686C302.835 59.1743 307.611 56.6249 308.994 58.0085C310.367 59.3812 307.818 64.1572 306.223 65.7515Z" fill="#F96464"/>
<path d="M316.112 46.3444C313.269 40.9967 315.3 34.3571 320.647 31.5144C325.995 28.6717 332.635 30.7024 335.478 36.0501C338.32 41.3978 336.29 48.0374 330.942 50.8801C325.594 53.7228 318.954 51.6921 316.112 46.3444Z" fill="#6D6D6D"/>
<path d="M318.374 45.1416C316.196 41.0436 317.752 35.9555 321.85 33.7771C325.948 31.5987 331.036 33.1549 333.215 37.2529C335.393 41.3509 333.837 46.439 329.739 48.6174C325.641 50.7958 320.553 49.2396 318.374 45.1416Z" fill="#66D5F2"/>
<path d="M349.56 17.4278C347.652 15.5204 345.355 15.9432 342.154 16.3356C342.144 16.3369 342.135 16.3379 342.125 16.339C334.404 17.2897 322.973 20.3289 313.749 29.5533C310.983 32.3196 308.461 35.1838 306.227 38.0617L294.835 37.7614C292.259 37.6864 289.749 38.6974 287.931 40.5155L280.904 47.5432C279.227 49.2209 279.995 52.0846 282.291 52.6939L296.229 56.3904C295.862 57.6935 295.597 58.9531 295.449 60.1542C294.604 59.5774 293.44 59.6612 292.691 60.4101C291.844 61.2573 291.844 62.6353 292.691 63.4825L292.837 63.6291C291.428 64.0172 290.135 64.7595 289.073 65.8217C287.071 67.8233 283.991 75.2084 281.76 81.0511C280.759 83.6751 283.331 86.2287 285.941 85.2317C291.784 83.0005 299.169 79.921 301.171 77.9194C302.254 76.8362 302.981 75.5319 303.359 74.151L303.51 74.3013C304.357 75.1485 305.735 75.1481 306.582 74.3013C307.332 73.5515 307.415 72.3865 306.837 71.5413C308.039 71.3932 309.3 71.1283 310.605 70.7613L314.299 84.7C314.907 86.9933 317.77 87.7672 319.45 86.0876L326.477 79.0605C328.295 77.2427 329.298 74.7265 329.231 72.1567L328.931 60.7645C341.11 51.3126 348.626 41.341 350.651 24.8588C351.02 21.8533 351.509 19.3754 349.56 17.4278ZM349.047 17.94C350.772 19.6639 350.281 21.8891 349.941 24.6967C349.463 28.6105 348.439 33.4919 346.317 38.5714L328.42 20.6735C333.496 18.5525 338.373 17.5281 342.285 17.0493C345.439 16.6662 347.431 16.3233 349.047 17.94ZM282.476 51.9936C280.724 51.5289 280.132 49.3393 281.416 48.0554L288.444 41.0278C290.127 39.3445 292.461 38.4194 294.816 38.4861L305.682 38.7723C301.245 44.6189 298.024 50.493 296.432 55.6948L282.476 51.9936ZM293.203 60.9223C293.768 60.3578 294.686 60.3578 295.251 60.9223C298.957 64.6374 294.515 60.1877 298.137 63.8085C297.562 64.5068 296.943 65.2728 296.309 66.0758L293.203 62.9704C292.638 62.4058 292.638 61.4869 293.203 60.9223ZM301.497 61.0246C303.076 59.4457 307.615 57.1414 308.738 58.2646C309.849 59.3752 307.539 63.9236 305.967 65.4954C304.246 67.2166 291.912 77.2506 290.547 76.4594C289.676 75.1937 299.651 62.8699 301.497 61.0246ZM300.658 77.4071C299.167 78.8979 293.848 81.4366 285.683 84.5546C283.648 85.3314 281.662 83.3401 282.437 81.3093C285.555 73.1436 288.094 67.8251 289.585 66.3339C290.658 65.2611 291.988 64.5423 293.434 64.2257L295.858 66.6493C294.457 68.4397 288.729 75.6672 290.033 76.9699C291.373 78.3097 298.639 72.4688 300.344 71.1351L302.755 73.5461C302.45 74.9615 301.757 76.3085 300.658 77.4071ZM306.07 73.7889C305.505 74.3534 304.586 74.3534 304.022 73.7889L300.917 70.6839C301.72 70.0491 302.486 69.4299 303.184 68.8552C303.554 69.2259 306.107 71.7786 306.07 71.7412C306.634 72.3058 306.634 73.2244 306.07 73.7889ZM328.506 72.1756C328.569 74.5475 327.643 76.87 325.965 78.548L318.938 85.5752C317.655 86.8569 315.465 86.2699 314.999 84.5144L311.3 70.5578C316.501 68.9654 322.374 65.7457 328.22 61.3097L328.506 72.1756ZM336.927 52.7307C326.54 63.1177 314.801 70.0552 306.234 70.8807L303.744 68.3914C305.094 67.2681 306.111 66.3764 306.48 66.0077C308.069 64.4178 310.9 59.4019 309.251 57.7525C307.615 56.1173 302.591 58.9062 300.985 60.5126C300.615 60.882 299.723 61.899 298.601 63.2483L296.11 60.7571C296.938 52.1895 303.875 40.4516 314.261 30.0659C318.464 25.8633 323.135 22.9686 327.696 20.9742L346.017 39.2956C344.024 43.857 341.13 48.5282 336.927 52.7307Z" fill="black"/>
<path d="M333.804 33.1882C329.388 28.7717 322.201 28.771 317.783 33.1882C313.367 37.605 313.367 44.7916 317.783 49.2085C322.199 53.6248 329.388 53.6257 333.804 49.2085C338.232 44.7811 338.236 37.6205 333.804 33.1882ZM333.292 48.6962C329.158 52.8304 322.43 52.8304 318.296 48.6962C314.161 44.5617 314.161 37.8348 318.296 33.7002C322.429 29.5668 329.157 29.5654 333.292 33.7002C337.437 37.8451 337.442 44.5475 333.292 48.6962Z" fill="black"/>
<path d="M331.992 35.0003C328.575 31.5831 323.014 31.5823 319.596 35.0003C316.171 38.4246 316.17 43.9712 319.596 47.3964C323.021 50.8212 328.567 50.8221 331.992 47.3964C335.41 43.9792 335.41 38.4181 331.992 35.0003ZM331.48 46.8843C328.345 50.0199 323.243 50.0192 320.108 46.8843C316.966 43.7425 316.966 38.6546 320.108 35.5125C323.244 32.3772 328.344 32.3771 331.48 35.5125C334.616 38.6481 334.616 43.7492 331.48 46.8843Z" fill="black"/>
<path opacity="0.08" d="M337.185 52.9864C326.381 63.7899 314.42 70.529 306.095 71.2531L304.261 69.419C312.586 68.6949 324.547 61.9558 335.351 51.1523C346.149 40.3541 348.395 26.4691 348.787 19.2914C348.834 18.4299 348.633 17.6054 348.253 16.9077C349.733 17.7006 350.716 19.3073 350.621 21.1255C350.23 28.3031 347.983 42.1882 337.185 52.9864Z" fill="#1A0907"/>
<mask id="path-16-inside-1_4_20" fill="white">
<path d="M161.549 43.9465L156.699 48.2697C155.801 47.2598 154.845 46.5013 153.831 45.9943C152.821 45.4874 151.731 45.194 150.561 45.1141V39.3239C154.924 39.5195 158.587 41.0604 161.549 43.9465ZM150.561 83.3581V77.5679C151.731 77.4522 152.831 77.1408 153.861 76.6338C154.894 76.1269 155.84 75.3864 156.699 74.4124L161.549 78.6817C160.068 80.1227 158.411 81.2325 156.579 82.0109C154.747 82.7933 152.741 83.2424 150.561 83.3581ZM131.61 61.3111C131.61 57.8422 132.029 54.7824 132.867 52.1318C133.706 49.4812 134.867 47.2398 136.352 45.4075C137.833 43.5753 139.578 42.1522 141.586 41.1382C143.59 40.1243 145.781 39.5195 148.16 39.3239V45.174C146.875 45.3696 145.667 45.8087 144.538 46.4913C143.404 47.1699 142.41 48.1539 141.556 49.4433C140.697 50.7287 140.025 52.3554 139.538 54.3233C139.051 56.2913 138.787 58.6206 138.747 61.3111C138.787 64.0415 139.051 66.3808 139.538 68.3288C140.025 70.2768 140.697 71.9135 141.556 73.2388C142.41 74.5641 143.414 75.578 144.568 76.2806C145.717 76.9831 146.915 77.4123 148.16 77.5679V83.2983C145.781 83.1426 143.59 82.5578 141.586 81.5438C139.578 80.5299 137.833 79.1068 136.352 77.2745C134.867 75.4423 133.706 73.1909 132.867 70.5203C132.029 67.8498 131.61 64.78 131.61 61.3111ZM186.756 55.4071V49.9103C188.899 50.0261 190.847 50.5431 192.6 51.4612C194.356 52.3753 195.829 53.5829 197.019 55.0838C198.204 56.5847 199.128 58.3292 199.791 60.3171C200.454 62.3051 200.785 64.4307 200.785 66.6941C200.785 68.9535 200.446 71.0672 199.767 73.0352C199.085 75.0032 198.139 76.7197 196.929 78.1847C195.719 79.6457 194.238 80.8233 192.486 81.7175C190.73 82.6156 188.82 83.1426 186.756 83.2983V77.6877C188.704 77.2566 190.293 76.0271 191.522 73.9992C192.748 71.9753 193.36 69.5403 193.36 66.6941C193.36 65.2491 193.215 63.8938 192.923 62.6284C192.632 61.363 192.193 60.2233 191.606 59.2094C191.023 58.1955 190.322 57.3572 189.504 56.6945C188.686 56.0319 187.77 55.6027 186.756 55.4071ZM170.439 66.5744C170.439 64.315 170.77 62.2093 171.433 60.2572C172.096 58.3092 173.042 56.6047 174.271 55.1437C175.497 53.6827 176.968 52.5031 178.684 51.6049C180.401 50.7067 182.291 50.1618 184.355 49.9702V55.4071C182.407 55.8343 180.848 57.0618 179.678 59.0896C178.509 61.1175 177.924 63.5545 177.924 66.4007C177.924 67.8418 178.07 69.205 178.361 70.4904C178.656 71.7797 179.075 72.9314 179.618 73.9453C180.165 74.9553 180.838 75.7916 181.636 76.4542C182.435 77.1169 183.341 77.528 184.355 77.6877V83.2983C182.211 83.1426 180.283 82.6077 178.57 81.6935C176.854 80.7754 175.391 79.5758 174.181 78.0949C172.972 76.6139 172.046 74.8794 171.403 72.8915C170.76 70.9035 170.439 68.7978 170.439 66.5744ZM230.316 37.6294H237.453V83.0647H230.729L230.316 79.1487V37.6294ZM207.862 66.1073C207.862 63.0655 208.281 60.5127 209.119 58.4489C209.957 56.3811 211.039 54.7046 212.365 53.4192C213.69 52.1338 215.163 51.2077 216.783 50.6409C218.4 50.074 219.987 49.7906 221.544 49.7906C222.753 49.7906 223.905 49.9283 224.999 50.2037C226.088 50.4752 227.063 50.8644 227.921 51.3714V57.5687C227.258 56.8662 226.518 56.3013 225.699 55.8742C224.881 55.4471 223.965 55.2335 222.951 55.2335C221.741 55.2335 220.67 55.5349 219.735 56.1376C218.797 56.7404 218.007 57.5687 217.364 58.6226C216.722 59.6764 216.225 60.884 215.873 62.2452C215.522 63.6104 215.346 65.0734 215.346 66.6342C215.346 68.1911 215.542 69.6421 215.933 70.9874C216.324 72.3326 216.851 73.5122 217.514 74.5261C218.177 75.5401 218.985 76.3404 219.939 76.9272C220.893 77.5101 221.935 77.8015 223.065 77.8015C224.977 77.8015 226.595 77.041 227.921 75.5201V81.6037C226.987 82.1107 225.905 82.5298 224.675 82.8611C223.446 83.1925 222.149 83.3581 220.783 83.3581C219.227 83.3581 217.698 83.0747 216.197 82.5079C214.696 81.945 213.36 81.0189 212.191 79.7295C210.71 78.053 209.618 75.9772 208.916 73.5022C208.213 71.0273 207.862 68.5623 207.862 66.1073ZM262.768 55.2874V49.7906C264.876 49.9862 266.778 50.553 268.475 51.4911C270.167 52.4252 271.618 53.6328 272.828 55.1137C274.037 56.5947 274.963 58.2913 275.606 60.2034C276.249 62.1115 276.57 64.0994 276.57 66.1672C276.57 67.1013 276.512 68.0354 276.396 68.9695H256.337V63.826H269.846C269.846 62.812 269.68 61.838 269.349 60.9039C269.017 59.9658 268.53 59.0976 267.888 58.2992C267.245 57.5009 266.495 56.8282 265.636 56.2814C264.778 55.7385 263.822 55.4071 262.768 55.2874ZM262.535 77.5679C262.966 77.5679 263.503 77.52 264.145 77.4242C264.788 77.3244 265.471 77.1488 266.193 76.8973C266.912 76.6418 267.632 76.3205 268.355 75.9333C269.077 75.5421 269.71 75.073 270.253 74.5261L272.828 78.4481C271.542 80.0449 270.041 81.2524 268.325 82.0708C266.608 82.8891 264.425 83.2983 261.774 83.2983C259.631 83.2983 257.625 82.8592 255.756 81.9809C253.884 81.1067 252.286 79.9092 250.96 78.3883C249.635 76.8674 248.581 75.093 247.799 73.0651C247.02 71.0373 246.631 68.8537 246.631 66.5145C246.631 64.295 246.992 62.1913 247.715 60.2034C248.433 58.2154 249.417 56.471 250.667 54.97C251.912 53.4691 253.363 52.2496 255.02 51.3115C256.681 50.3774 258.465 49.8525 260.373 49.7367V55.3473C258.932 55.6187 257.742 56.2035 256.804 57.1017C255.87 57.9998 255.14 59.0238 254.613 60.1734C254.086 61.3231 253.717 62.5027 253.505 63.7122C253.29 64.9177 253.182 65.9496 253.182 66.8079C253.182 68.3288 253.367 69.7419 253.739 71.0472C254.106 72.3526 254.681 73.4843 255.463 74.4423C256.242 75.3964 257.206 76.1548 258.355 76.7177C259.505 77.2845 260.898 77.5679 262.535 77.5679Z"/>
</mask>
<path d="M161.549 43.9465L156.699 48.2697C155.801 47.2598 154.845 46.5013 153.831 45.9943C152.821 45.4874 151.731 45.194 150.561 45.1141V39.3239C154.924 39.5195 158.587 41.0604 161.549 43.9465ZM150.561 83.3581V77.5679C151.731 77.4522 152.831 77.1408 153.861 76.6338C154.894 76.1269 155.84 75.3864 156.699 74.4124L161.549 78.6817C160.068 80.1227 158.411 81.2325 156.579 82.0109C154.747 82.7933 152.741 83.2424 150.561 83.3581ZM131.61 61.3111C131.61 57.8422 132.029 54.7824 132.867 52.1318C133.706 49.4812 134.867 47.2398 136.352 45.4075C137.833 43.5753 139.578 42.1522 141.586 41.1382C143.59 40.1243 145.781 39.5195 148.16 39.3239V45.174C146.875 45.3696 145.667 45.8087 144.538 46.4913C143.404 47.1699 142.41 48.1539 141.556 49.4433C140.697 50.7287 140.025 52.3554 139.538 54.3233C139.051 56.2913 138.787 58.6206 138.747 61.3111C138.787 64.0415 139.051 66.3808 139.538 68.3288C140.025 70.2768 140.697 71.9135 141.556 73.2388C142.41 74.5641 143.414 75.578 144.568 76.2806C145.717 76.9831 146.915 77.4123 148.16 77.5679V83.2983C145.781 83.1426 143.59 82.5578 141.586 81.5438C139.578 80.5299 137.833 79.1068 136.352 77.2745C134.867 75.4423 133.706 73.1909 132.867 70.5203C132.029 67.8498 131.61 64.78 131.61 61.3111ZM186.756 55.4071V49.9103C188.899 50.0261 190.847 50.5431 192.6 51.4612C194.356 52.3753 195.829 53.5829 197.019 55.0838C198.204 56.5847 199.128 58.3292 199.791 60.3171C200.454 62.3051 200.785 64.4307 200.785 66.6941C200.785 68.9535 200.446 71.0672 199.767 73.0352C199.085 75.0032 198.139 76.7197 196.929 78.1847C195.719 79.6457 194.238 80.8233 192.486 81.7175C190.73 82.6156 188.82 83.1426 186.756 83.2983V77.6877C188.704 77.2566 190.293 76.0271 191.522 73.9992C192.748 71.9753 193.36 69.5403 193.36 66.6941C193.36 65.2491 193.215 63.8938 192.923 62.6284C192.632 61.363 192.193 60.2233 191.606 59.2094C191.023 58.1955 190.322 57.3572 189.504 56.6945C188.686 56.0319 187.77 55.6027 186.756 55.4071ZM170.439 66.5744C170.439 64.315 170.77 62.2093 171.433 60.2572C172.096 58.3092 173.042 56.6047 174.271 55.1437C175.497 53.6827 176.968 52.5031 178.684 51.6049C180.401 50.7067 182.291 50.1618 184.355 49.9702V55.4071C182.407 55.8343 180.848 57.0618 179.678 59.0896C178.509 61.1175 177.924 63.5545 177.924 66.4007C177.924 67.8418 178.07 69.205 178.361 70.4904C178.656 71.7797 179.075 72.9314 179.618 73.9453C180.165 74.9553 180.838 75.7916 181.636 76.4542C182.435 77.1169 183.341 77.528 184.355 77.6877V83.2983C182.211 83.1426 180.283 82.6077 178.57 81.6935C176.854 80.7754 175.391 79.5758 174.181 78.0949C172.972 76.6139 172.046 74.8794 171.403 72.8915C170.76 70.9035 170.439 68.7978 170.439 66.5744ZM230.316 37.6294H237.453V83.0647H230.729L230.316 79.1487V37.6294ZM207.862 66.1073C207.862 63.0655 208.281 60.5127 209.119 58.4489C209.957 56.3811 211.039 54.7046 212.365 53.4192C213.69 52.1338 215.163 51.2077 216.783 50.6409C218.4 50.074 219.987 49.7906 221.544 49.7906C222.753 49.7906 223.905 49.9283 224.999 50.2037C226.088 50.4752 227.063 50.8644 227.921 51.3714V57.5687C227.258 56.8662 226.518 56.3013 225.699 55.8742C224.881 55.4471 223.965 55.2335 222.951 55.2335C221.741 55.2335 220.67 55.5349 219.735 56.1376C218.797 56.7404 218.007 57.5687 217.364 58.6226C216.722 59.6764 216.225 60.884 215.873 62.2452C215.522 63.6104 215.346 65.0734 215.346 66.6342C215.346 68.1911 215.542 69.6421 215.933 70.9874C216.324 72.3326 216.851 73.5122 217.514 74.5261C218.177 75.5401 218.985 76.3404 219.939 76.9272C220.893 77.5101 221.935 77.8015 223.065 77.8015C224.977 77.8015 226.595 77.041 227.921 75.5201V81.6037C226.987 82.1107 225.905 82.5298 224.675 82.8611C223.446 83.1925 222.149 83.3581 220.783 83.3581C219.227 83.3581 217.698 83.0747 216.197 82.5079C214.696 81.945 213.36 81.0189 212.191 79.7295C210.71 78.053 209.618 75.9772 208.916 73.5022C208.213 71.0273 207.862 68.5623 207.862 66.1073ZM262.768 55.2874V49.7906C264.876 49.9862 266.778 50.553 268.475 51.4911C270.167 52.4252 271.618 53.6328 272.828 55.1137C274.037 56.5947 274.963 58.2913 275.606 60.2034C276.249 62.1115 276.57 64.0994 276.57 66.1672C276.57 67.1013 276.512 68.0354 276.396 68.9695H256.337V63.826H269.846C269.846 62.812 269.68 61.838 269.349 60.9039C269.017 59.9658 268.53 59.0976 267.888 58.2992C267.245 57.5009 266.495 56.8282 265.636 56.2814C264.778 55.7385 263.822 55.4071 262.768 55.2874ZM262.535 77.5679C262.966 77.5679 263.503 77.52 264.145 77.4242C264.788 77.3244 265.471 77.1488 266.193 76.8973C266.912 76.6418 267.632 76.3205 268.355 75.9333C269.077 75.5421 269.71 75.073 270.253 74.5261L272.828 78.4481C271.542 80.0449 270.041 81.2524 268.325 82.0708C266.608 82.8891 264.425 83.2983 261.774 83.2983C259.631 83.2983 257.625 82.8592 255.756 81.9809C253.884 81.1067 252.286 79.9092 250.96 78.3883C249.635 76.8674 248.581 75.093 247.799 73.0651C247.02 71.0373 246.631 68.8537 246.631 66.5145C246.631 64.295 246.992 62.1913 247.715 60.2034C248.433 58.2154 249.417 56.471 250.667 54.97C251.912 53.4691 253.363 52.2496 255.02 51.3115C256.681 50.3774 258.465 49.8525 260.373 49.7367V55.3473C258.932 55.6187 257.742 56.2035 256.804 57.1017C255.87 57.9998 255.14 59.0238 254.613 60.1734C254.086 61.3231 253.717 62.5027 253.505 63.7122C253.29 64.9177 253.182 65.9496 253.182 66.8079C253.182 68.3288 253.367 69.7419 253.739 71.0472C254.106 72.3526 254.681 73.4843 255.463 74.4423C256.242 75.3964 257.206 76.1548 258.355 76.7177C259.505 77.2845 260.898 77.5679 262.535 77.5679Z" fill="white" stroke="#A7A3A3" mask="url(#path-16-inside-1_4_20)"/>
</svg>
