<svg width="277" height="149" viewBox="0 0 277 149" fill="none" xmlns="http://www.w3.org/2000/svg">
<path d="M81.6427 76.9368L81.6407 76.9382C80.2404 77.9212 77.8303 78.4819 74.2553 78.4819C70.6159 78.4819 68.0138 77.9083 66.3431 76.8631C64.7312 75.8546 63.9254 74.3711 63.9254 72.3C63.9254 70.1485 64.7066 68.718 66.2021 67.8385C67.7934 66.9027 70.3213 66.3856 73.8919 66.3856C77.4651 66.3856 79.9645 66.9036 81.5057 67.8341C82.9548 68.7089 83.7214 70.1428 83.7214 72.3138C83.7214 74.5062 82.9961 75.9933 81.6427 76.9368ZM132.256 134.847L132.254 134.849C130.497 137.45 127.115 138.873 121.795 138.873H118.027V89.1557H134.402V123.792C134.402 126.148 134.259 128.275 133.978 130.175C133.704 132.025 133.123 133.575 132.256 134.847ZM99.2913 129.214L99.2914 129.214C100.858 128.239 102.918 127.723 105.525 127.723C108.129 127.723 110.281 128.238 112.017 129.229L112.018 129.23C113.802 130.242 114.587 131.525 114.587 133.096C114.587 134.733 113.858 136.037 112.284 137.052C110.743 138.045 108.709 138.571 106.129 138.571C103.46 138.571 101.291 138.045 99.5787 137.037C97.7883 135.977 97.0054 134.678 97.0054 133.13C97.0054 132.272 97.2072 131.534 97.5951 130.894C98.0006 130.229 98.5608 129.669 99.2913 129.214ZM41.564 81.6385V77.733H55.0589V95.1498H52.0585C49.6304 95.1498 47.9547 94.888 46.9433 94.4344C45.8368 93.9333 45.0119 93.3874 44.4365 92.812C43.8599 92.2354 43.3459 91.4549 42.908 90.4463C42.029 88.3956 41.564 85.4774 41.564 81.6385ZM19.9046 121.801V77.733H36.4164V121.801H19.9046ZM1.15237 95.1498V77.733H14.6542V81.6385C14.6542 87.3427 13.6104 90.9764 11.761 92.8257C10.267 94.3197 7.79134 95.1498 4.15281 95.1498H1.15237ZM65.804 121.801V89.1831H82.3158V121.801H65.804ZM93.2549 105.876C93.2549 103.488 93.5683 101.282 94.1886 99.2535C94.8088 97.2356 95.7653 95.4826 97.0552 93.9844C99.8251 90.7933 103.816 89.1557 109.145 89.1557H110.973V121.801H109.982C104.493 121.801 100.353 120.301 97.4508 117.399C94.6779 114.626 93.2549 110.816 93.2549 105.876ZM168.649 121.801V89.1557H170.477C175.802 89.1557 179.791 90.7932 182.561 93.9848C185.071 96.8977 186.361 100.792 186.361 105.746C186.361 110.777 184.936 114.629 182.165 117.399C179.263 120.302 175.125 121.801 169.641 121.801H168.649ZM144.008 105.876C144.008 103.488 144.321 101.282 144.941 99.2535C145.561 97.2356 146.518 95.4826 147.808 93.9844C150.578 90.7933 154.568 89.1557 159.898 89.1557H161.726V121.801H160.735C155.246 121.801 151.106 120.301 148.203 117.399C145.431 114.626 144.008 110.816 144.008 105.876Z" fill="#1A0907" stroke="white" stroke-width="1.5"/>
<mask id="path-2-inside-1_4_20" fill="white">
<path d="M161.549 108.947L156.699 113.27C155.8 112.26 154.844 111.501 153.83 110.994C152.821 110.487 151.731 110.194 150.561 110.114V104.324C154.924 104.52 158.587 106.06 161.549 108.947ZM150.561 148.358V142.568C151.731 142.452 152.83 142.141 153.86 141.634C154.894 141.127 155.84 140.386 156.699 139.412L161.549 143.682C160.068 145.123 158.411 146.232 156.579 147.011C154.747 147.793 152.741 148.242 150.561 148.358ZM131.61 126.311C131.61 122.842 132.029 119.782 132.867 117.132C133.705 114.481 134.867 112.24 136.352 110.408C137.833 108.575 139.578 107.152 141.585 106.138C143.589 105.124 145.781 104.52 148.16 104.324V110.174C146.875 110.37 145.667 110.809 144.537 111.491C143.404 112.17 142.41 113.154 141.555 114.443C140.697 115.729 140.025 117.355 139.538 119.323C139.051 121.291 138.787 123.621 138.747 126.311C138.787 129.042 139.051 131.381 139.538 133.329C140.025 135.277 140.697 136.913 141.555 138.239C142.41 139.564 143.414 140.578 144.567 141.281C145.717 141.983 146.915 142.412 148.16 142.568V148.298C145.781 148.143 143.589 147.558 141.585 146.544C139.578 145.53 137.833 144.107 136.352 142.275C134.867 140.442 133.705 138.191 132.867 135.52C132.029 132.85 131.61 129.78 131.61 126.311ZM186.756 120.407V114.91C188.899 115.026 190.847 115.543 192.6 116.461C194.356 117.375 195.829 118.583 197.019 120.084C198.204 121.585 199.128 123.329 199.791 125.317C200.454 127.305 200.785 129.431 200.785 131.694C200.785 133.954 200.446 136.067 199.767 138.035C199.085 140.003 198.138 141.72 196.929 143.185C195.719 144.646 194.238 145.823 192.486 146.717C190.73 147.616 188.82 148.143 186.756 148.298V142.688C188.704 142.257 190.292 141.027 191.522 138.999C192.747 136.975 193.36 134.54 193.36 131.694C193.36 130.249 193.215 128.894 192.923 127.628C192.632 126.363 192.193 125.223 191.606 124.209C191.023 123.195 190.322 122.357 189.504 121.695C188.686 121.032 187.77 120.603 186.756 120.407ZM170.439 131.574C170.439 129.315 170.77 127.209 171.433 125.257C172.096 123.309 173.042 121.605 174.271 120.144C175.497 118.683 176.968 117.503 178.684 116.605C180.401 115.707 182.291 115.162 184.355 114.97V120.407C182.407 120.834 180.848 122.062 179.678 124.09C178.509 126.117 177.924 128.555 177.924 131.401C177.924 132.842 178.069 134.205 178.361 135.49C178.656 136.78 179.075 137.931 179.618 138.945C180.165 139.955 180.838 140.792 181.636 141.454C182.435 142.117 183.341 142.528 184.355 142.688V148.298C182.211 148.143 180.283 147.608 178.57 146.694C176.854 145.775 175.391 144.576 174.181 143.095C172.972 141.614 172.046 139.879 171.403 137.891C170.76 135.904 170.439 133.798 170.439 131.574ZM230.316 102.629H237.453V148.065H230.729L230.316 144.149V102.629ZM207.862 131.107C207.862 128.066 208.281 125.513 209.119 123.449C209.957 121.381 211.039 119.705 212.365 118.419C213.69 117.134 215.163 116.208 216.784 115.641C218.4 115.074 219.987 114.791 221.544 114.791C222.753 114.791 223.905 114.928 224.999 115.204C226.089 115.475 227.063 115.864 227.921 116.371V122.569C227.258 121.866 226.518 121.301 225.699 120.874C224.881 120.447 223.965 120.233 222.951 120.233C221.741 120.233 220.67 120.535 219.736 121.138C218.797 121.74 218.007 122.569 217.364 123.623C216.722 124.676 216.225 125.884 215.873 127.245C215.522 128.61 215.346 130.073 215.346 131.634C215.346 133.191 215.542 134.642 215.933 135.987C216.324 137.333 216.851 138.512 217.514 139.526C218.177 140.54 218.985 141.34 219.939 141.927C220.893 142.51 221.935 142.801 223.065 142.801C224.977 142.801 226.596 142.041 227.921 140.52V146.604C226.987 147.111 225.905 147.53 224.675 147.861C223.446 148.192 222.149 148.358 220.783 148.358C219.227 148.358 217.698 148.075 216.197 147.508C214.696 146.945 213.361 146.019 212.191 144.73C210.71 143.053 209.618 140.977 208.916 138.502C208.213 136.027 207.862 133.562 207.862 131.107ZM262.768 120.287V114.791C264.876 114.986 266.778 115.553 268.475 116.491C270.167 117.425 271.618 118.633 272.828 120.114C274.037 121.595 274.963 123.291 275.606 125.203C276.249 127.111 276.57 129.099 276.57 131.167C276.57 132.101 276.512 133.035 276.397 133.969H256.337V128.826H269.846C269.846 127.812 269.68 126.838 269.349 125.904C269.018 124.966 268.531 124.098 267.888 123.299C267.245 122.501 266.495 121.828 265.636 121.281C264.778 120.738 263.822 120.407 262.768 120.287ZM262.535 142.568C262.966 142.568 263.503 142.52 264.146 142.424C264.788 142.324 265.471 142.149 266.193 141.897C266.912 141.642 267.632 141.32 268.355 140.933C269.077 140.542 269.71 140.073 270.253 139.526L272.828 143.448C271.542 145.045 270.042 146.252 268.325 147.071C266.609 147.889 264.425 148.298 261.774 148.298C259.631 148.298 257.625 147.859 255.757 146.981C253.884 146.107 252.286 144.909 250.96 143.388C249.635 141.867 248.581 140.093 247.799 138.065C247.02 136.037 246.631 133.854 246.631 131.514C246.631 129.295 246.993 127.191 247.715 125.203C248.434 123.215 249.418 121.471 250.667 119.97C251.912 118.469 253.364 117.25 255.02 116.311C256.681 115.377 258.465 114.852 260.373 114.737V120.347C258.932 120.619 257.743 121.204 256.805 122.102C255.87 123 255.14 124.024 254.613 125.173C254.086 126.323 253.717 127.503 253.505 128.712C253.29 129.918 253.182 130.95 253.182 131.808C253.182 133.329 253.368 134.742 253.739 136.047C254.106 137.353 254.681 138.484 255.463 139.442C256.242 140.396 257.206 141.155 258.355 141.718C259.505 142.285 260.898 142.568 262.535 142.568Z"/>
</mask>
<path d="M161.549 108.947L156.699 113.27C155.8 112.26 154.844 111.501 153.83 110.994C152.821 110.487 151.731 110.194 150.561 110.114V104.324C154.924 104.52 158.587 106.06 161.549 108.947ZM150.561 148.358V142.568C151.731 142.452 152.83 142.141 153.86 141.634C154.894 141.127 155.84 140.386 156.699 139.412L161.549 143.682C160.068 145.123 158.411 146.232 156.579 147.011C154.747 147.793 152.741 148.242 150.561 148.358ZM131.61 126.311C131.61 122.842 132.029 119.782 132.867 117.132C133.705 114.481 134.867 112.24 136.352 110.408C137.833 108.575 139.578 107.152 141.585 106.138C143.589 105.124 145.781 104.52 148.16 104.324V110.174C146.875 110.37 145.667 110.809 144.537 111.491C143.404 112.17 142.41 113.154 141.555 114.443C140.697 115.729 140.025 117.355 139.538 119.323C139.051 121.291 138.787 123.621 138.747 126.311C138.787 129.042 139.051 131.381 139.538 133.329C140.025 135.277 140.697 136.913 141.555 138.239C142.41 139.564 143.414 140.578 144.567 141.281C145.717 141.983 146.915 142.412 148.16 142.568V148.298C145.781 148.143 143.589 147.558 141.585 146.544C139.578 145.53 137.833 144.107 136.352 142.275C134.867 140.442 133.705 138.191 132.867 135.52C132.029 132.85 131.61 129.78 131.61 126.311ZM186.756 120.407V114.91C188.899 115.026 190.847 115.543 192.6 116.461C194.356 117.375 195.829 118.583 197.019 120.084C198.204 121.585 199.128 123.329 199.791 125.317C200.454 127.305 200.785 129.431 200.785 131.694C200.785 133.954 200.446 136.067 199.767 138.035C199.085 140.003 198.138 141.72 196.929 143.185C195.719 144.646 194.238 145.823 192.486 146.717C190.73 147.616 188.82 148.143 186.756 148.298V142.688C188.704 142.257 190.292 141.027 191.522 138.999C192.747 136.975 193.36 134.54 193.36 131.694C193.36 130.249 193.215 128.894 192.923 127.628C192.632 126.363 192.193 125.223 191.606 124.209C191.023 123.195 190.322 122.357 189.504 121.695C188.686 121.032 187.77 120.603 186.756 120.407ZM170.439 131.574C170.439 129.315 170.77 127.209 171.433 125.257C172.096 123.309 173.042 121.605 174.271 120.144C175.497 118.683 176.968 117.503 178.684 116.605C180.401 115.707 182.291 115.162 184.355 114.97V120.407C182.407 120.834 180.848 122.062 179.678 124.09C178.509 126.117 177.924 128.555 177.924 131.401C177.924 132.842 178.069 134.205 178.361 135.49C178.656 136.78 179.075 137.931 179.618 138.945C180.165 139.955 180.838 140.792 181.636 141.454C182.435 142.117 183.341 142.528 184.355 142.688V148.298C182.211 148.143 180.283 147.608 178.57 146.694C176.854 145.775 175.391 144.576 174.181 143.095C172.972 141.614 172.046 139.879 171.403 137.891C170.76 135.904 170.439 133.798 170.439 131.574ZM230.316 102.629H237.453V148.065H230.729L230.316 144.149V102.629ZM207.862 131.107C207.862 128.066 208.281 125.513 209.119 123.449C209.957 121.381 211.039 119.705 212.365 118.419C213.69 117.134 215.163 116.208 216.784 115.641C218.4 115.074 219.987 114.791 221.544 114.791C222.753 114.791 223.905 114.928 224.999 115.204C226.089 115.475 227.063 115.864 227.921 116.371V122.569C227.258 121.866 226.518 121.301 225.699 120.874C224.881 120.447 223.965 120.233 222.951 120.233C221.741 120.233 220.67 120.535 219.736 121.138C218.797 121.74 218.007 122.569 217.364 123.623C216.722 124.676 216.225 125.884 215.873 127.245C215.522 128.61 215.346 130.073 215.346 131.634C215.346 133.191 215.542 134.642 215.933 135.987C216.324 137.333 216.851 138.512 217.514 139.526C218.177 140.54 218.985 141.34 219.939 141.927C220.893 142.51 221.935 142.801 223.065 142.801C224.977 142.801 226.596 142.041 227.921 140.52V146.604C226.987 147.111 225.905 147.53 224.675 147.861C223.446 148.192 222.149 148.358 220.783 148.358C219.227 148.358 217.698 148.075 216.197 147.508C214.696 146.945 213.361 146.019 212.191 144.73C210.71 143.053 209.618 140.977 208.916 138.502C208.213 136.027 207.862 133.562 207.862 131.107ZM262.768 120.287V114.791C264.876 114.986 266.778 115.553 268.475 116.491C270.167 117.425 271.618 118.633 272.828 120.114C274.037 121.595 274.963 123.291 275.606 125.203C276.249 127.111 276.57 129.099 276.57 131.167C276.57 132.101 276.512 133.035 276.397 133.969H256.337V128.826H269.846C269.846 127.812 269.68 126.838 269.349 125.904C269.018 124.966 268.531 124.098 267.888 123.299C267.245 122.501 266.495 121.828 265.636 121.281C264.778 120.738 263.822 120.407 262.768 120.287ZM262.535 142.568C262.966 142.568 263.503 142.52 264.146 142.424C264.788 142.324 265.471 142.149 266.193 141.897C266.912 141.642 267.632 141.32 268.355 140.933C269.077 140.542 269.71 140.073 270.253 139.526L272.828 143.448C271.542 145.045 270.042 146.252 268.325 147.071C266.609 147.889 264.425 148.298 261.774 148.298C259.631 148.298 257.625 147.859 255.757 146.981C253.884 146.107 252.286 144.909 250.96 143.388C249.635 141.867 248.581 140.093 247.799 138.065C247.02 136.037 246.631 133.854 246.631 131.514C246.631 129.295 246.993 127.191 247.715 125.203C248.434 123.215 249.418 121.471 250.667 119.97C251.912 118.469 253.364 117.25 255.02 116.311C256.681 115.377 258.465 114.852 260.373 114.737V120.347C258.932 120.619 257.743 121.204 256.805 122.102C255.87 123 255.14 124.024 254.613 125.173C254.086 126.323 253.717 127.503 253.505 128.712C253.29 129.918 253.182 130.95 253.182 131.808C253.182 133.329 253.368 134.742 253.739 136.047C254.106 137.353 254.681 138.484 255.463 139.442C256.242 140.396 257.206 141.155 258.355 141.718C259.505 142.285 260.898 142.568 262.535 142.568Z" fill="white" stroke="#A7A3A3" mask="url(#path-2-inside-1_4_20)"/>
<path d="M83.9741 75.0458C81.5622 77.4577 72.3209 81.268 65.6807 83.8035C62.8647 84.8787 60.108 82.1221 61.1832 79.306C63.7185 72.6658 67.5288 63.4246 69.9408 61.0126C73.8179 57.1355 80.097 57.1355 83.9741 61.0126C87.8512 64.8897 87.8512 71.1687 83.9741 75.0458Z" fill="#FFCE29"/>
<path d="M114.627 76.4282L106.115 84.94C104.322 86.733 101.26 85.9081 100.611 83.4569L92.4245 52.5705L61.5283 44.3766C59.0774 43.7266 58.2529 40.665 60.0458 38.8721L68.5584 30.3595C70.6852 28.2326 73.5923 27.0731 76.5991 27.1522L108.386 27.9896L116.997 36.6L117.834 68.3873C117.914 71.3941 116.754 74.3013 114.627 76.4282Z" fill="#F96464"/>
<path opacity="0.4" d="M63.0185 39.1054L67.1533 34.962C67.6833 34.4308 68.5437 34.4301 69.0744 34.9605C69.6048 35.4903 69.6055 36.3499 69.0759 36.8806L64.9411 41.024C64.4111 41.5552 63.5507 41.5559 63.02 41.0255C62.4895 40.4957 62.4888 39.6361 63.0185 39.1054Z" fill="white"/>
<path opacity="0.08" d="M114.623 76.4304L106.114 84.939C104.322 86.7317 101.261 85.9122 100.608 83.4536L100.455 82.8647C101.377 82.9672 102.35 82.6726 103.099 81.9235L111.607 73.4149C113.739 71.2828 114.892 68.3762 114.815 65.3673L113.976 33.5798L116.998 36.6017L117.837 68.3892C117.914 71.3981 116.755 74.2983 114.623 76.4304Z" fill="black"/>
<path d="M90.2483 67.2866C100.336 66.4058 114.818 58.2436 127.906 45.1557C140.99 32.0716 143.708 15.2567 144.182 6.56548C144.359 3.30591 141.674 0.62147 138.415 0.799715C129.725 1.27503 112.914 3.99751 99.8308 17.0809C86.7429 30.1688 78.5808 44.6502 77.6977 54.7361L90.2483 67.2866Z" fill="#F2F0F0"/>
<path d="M139.12 28.4645C142.789 19.9466 143.897 11.7886 144.182 6.56565C144.359 3.30591 141.674 0.62147 138.415 0.799715C133.193 1.08534 125.037 2.19504 116.521 5.86512L139.12 28.4645Z" fill="#F96464"/>
<path d="M90.5289 70.6632C89.6727 71.5195 88.2844 71.5195 87.4281 70.6632L74.3233 57.5585C73.4671 56.7023 73.4671 55.314 74.3233 54.4577C75.1795 53.6014 76.5678 53.6014 77.4242 54.4577L90.5289 67.5624C91.3851 68.4188 91.3851 69.807 90.5289 70.6632Z" fill="#6D6D6D"/>
<path d="M90.4049 60.6174C88.4886 62.5337 72.7666 75.5588 71.1036 73.8961C69.4277 72.2202 82.4529 56.498 84.3691 54.5817C86.3004 52.6505 92.0855 49.5624 93.7614 51.2383C95.4242 52.9011 92.3363 58.6862 90.4049 60.6174Z" fill="#F96464"/>
<path d="M102.382 37.1097C98.9388 30.632 101.399 22.5895 107.876 19.1461C114.354 15.7027 122.396 18.1625 125.84 24.6402C129.283 31.1178 126.823 39.1604 120.346 42.6038C113.868 46.0472 105.825 43.5874 102.382 37.1097Z" fill="#6D6D6D"/>
<path d="M105.123 35.6527C102.484 30.6888 104.369 24.5256 109.333 21.8869C114.297 19.2482 120.46 21.1332 123.099 26.0971C125.738 31.0611 123.853 37.2242 118.889 39.8629C113.925 42.5016 107.762 40.6166 105.123 35.6527Z" fill="#66D5F2"/>
<path d="M142.897 2.08308C140.587 -0.227364 137.804 0.284815 133.926 0.760133C133.915 0.761648 133.904 0.762827 133.892 0.764173C124.539 1.91578 110.694 5.59714 99.5204 16.7707C96.1696 20.1215 93.1151 23.5909 90.4096 27.0769L76.6107 26.7131C73.4903 26.6222 70.4501 27.8469 68.2482 30.0491L59.7355 38.5618C57.7043 40.594 58.6351 44.0628 61.4155 44.8008L78.2984 49.2783C77.8544 50.8568 77.5337 52.3825 77.3543 53.8374C76.3303 53.1388 74.9203 53.2402 74.0131 54.1475C72.9869 55.1737 72.9869 56.8428 74.0131 57.8691L74.1907 58.0466C72.484 58.5167 70.917 59.4159 69.6306 60.7024C67.206 63.127 63.4758 72.0726 60.7732 79.1498C59.5605 82.3283 62.6757 85.4214 65.8371 84.2137C72.9142 81.5111 81.8597 77.7809 84.2845 75.3564C85.5963 74.0444 86.4773 72.4644 86.9356 70.7917L87.1177 70.9738C88.1439 72 89.8134 71.9995 90.8393 70.9738C91.7478 70.0656 91.8483 68.6544 91.1478 67.6306C92.6042 67.4512 94.1315 67.1304 95.7118 66.6858L100.187 83.5697C100.923 86.3476 104.391 87.2849 106.426 85.2505L114.937 76.7386C117.139 74.5367 118.355 71.4888 118.273 68.3761L117.91 54.5767C132.662 43.1276 141.766 31.0491 144.219 11.0842C144.666 7.44371 145.258 4.44217 142.897 2.08308ZM142.277 2.70349C144.366 4.79159 143.771 7.48697 143.359 10.8879C142.78 15.6286 141.54 21.5415 138.97 27.6942L117.291 6.01456C123.439 3.44541 129.347 2.2046 134.085 1.62459C137.906 1.16055 140.318 0.745153 142.277 2.70349ZM61.6404 43.9525C59.5176 43.3897 58.8007 40.7374 60.3558 39.1822L68.8686 30.6697C70.9076 28.6307 73.7352 27.5101 76.5875 27.5909L89.7486 27.9376C84.3744 35.0196 80.4733 42.1349 78.5443 48.4357L61.6404 43.9525ZM74.6335 54.7679C75.3174 54.084 76.4299 54.084 77.1138 54.7679C81.6029 59.2679 76.2231 53.878 80.6098 58.2639C79.9137 59.1097 79.1639 60.0376 78.3952 61.0103L74.6335 57.2486C73.9497 56.5648 73.9497 55.4517 74.6335 54.7679ZM84.6793 54.8917C86.5927 52.9792 92.0904 50.188 93.451 51.5485C94.7963 52.8939 91.9986 58.4033 90.0945 60.3072C88.0096 62.3922 73.0695 74.5463 71.4159 73.5879C70.3619 72.0547 82.4441 57.127 84.6793 54.8917ZM83.6639 74.7358C81.8576 76.5416 75.4153 79.6167 65.5242 83.3935C63.0599 84.3346 60.6542 81.9225 61.5932 79.4626C65.37 69.5714 68.445 63.1292 70.251 61.3229C71.5503 60.0235 73.1613 59.1528 74.9133 58.7692L77.849 61.7049C76.1531 63.8737 69.2141 72.6283 70.7938 74.2063C72.4167 75.8292 81.218 68.7541 83.2828 67.1386L86.2032 70.059C85.8336 71.7735 84.9943 73.4051 83.6639 74.7358ZM90.2189 70.3531C89.535 71.0369 88.422 71.0369 87.7381 70.3531L83.9771 66.5921C84.9498 65.8231 85.8774 65.0731 86.723 64.3769C87.1721 64.826 90.2643 67.9181 90.2189 67.8728C90.9026 68.5567 90.9026 69.6694 90.2189 70.3531ZM117.396 68.3989C117.472 71.2721 116.35 74.0853 114.317 76.1178L105.805 84.6298C104.252 86.1823 101.599 85.4714 101.035 83.3449L96.5542 66.4393C102.854 64.5104 109.968 60.6104 117.049 55.2371L117.396 68.3989ZM127.596 44.8454C115.014 57.4271 100.795 65.8305 90.4172 66.8304L87.4018 63.8151C89.0366 62.4544 90.2684 61.3744 90.7151 60.9278C92.6409 59.002 96.0695 52.9262 94.0716 50.9283C92.0909 48.9476 86.0048 52.3258 84.0591 54.2715C83.6116 54.7191 82.5315 55.9509 81.1718 57.5853L78.1543 54.5677C79.1571 44.1898 87.5609 29.9717 100.141 17.3916C105.232 12.3009 110.89 8.7946 116.414 6.37879L138.606 28.5715C136.191 34.0967 132.686 39.7549 127.596 44.8454Z" fill="black"/>
<path d="M123.813 21.1736C118.463 15.8239 109.758 15.8231 104.407 21.1736C99.0572 26.5236 99.0572 35.2288 104.407 40.579C109.756 45.9284 118.463 45.9295 123.813 40.579C129.176 35.216 129.182 26.5425 123.813 21.1736ZM123.192 39.9584C118.185 44.9661 110.035 44.9661 105.028 39.9584C100.019 34.9503 100.019 26.802 105.028 21.7938C110.034 16.787 118.184 16.7853 123.192 21.7938C128.213 26.8145 128.219 34.9331 123.192 39.9584Z" fill="black"/>
<path d="M121.618 23.3686C117.479 19.2294 110.742 19.2284 106.602 23.3686C102.454 27.5165 102.453 34.2351 106.602 38.384C110.751 42.5324 117.469 42.5335 121.618 38.384C125.758 34.2447 125.758 27.5086 121.618 23.3686ZM120.998 37.7636C117.2 41.5618 111.02 41.5609 107.223 37.7636C103.417 33.958 103.417 27.795 107.223 23.989C111.021 20.1913 117.199 20.1911 120.998 23.989C124.796 27.7871 124.796 33.9661 120.998 37.7636Z" fill="black"/>
<path opacity="0.08" d="M127.908 45.1551C114.822 58.2413 100.333 66.4044 90.2495 67.2815L88.028 65.0599C98.1116 64.1828 112.6 56.0198 125.686 42.9335C138.766 29.8537 141.487 13.0347 141.961 4.34049C142.018 3.29694 141.775 2.29817 141.314 1.45306C143.107 2.41346 144.298 4.35968 144.182 6.56207C143.709 15.2563 140.988 32.0753 127.908 45.1551Z" fill="#1A0907"/>
</svg>
